<svg xmlns="http://www.w3.org/2000/svg" viewBox="0 0 60 60" class="fz1ftrx6o__design-iconfont" width="128" height="128">
  <path d="M45.7,24.2H14.3c-0.5,0-0.9,0.4-0.9,0.9v5.2c0,9.1,7.4,16.5,16.5,16.5s16.5-7.4,16.5-16.5V25 C46.5,24.6,46.1,24.2,45.7,24.2z M44.8,30.3C44.8,38.4,38.2,45,30,45s-14.8-6.6-14.8-14.8v-4.3h29.6V30.3z"></path>
  <path d="M30,27.7c-4.3,0-7.8,3.5-7.8,7.8s3.5,7.8,7.8,7.8s7.8-3.5,7.8-7.8S34.3,27.7,30,27.7z M30,41.6c-3.4,0-6.1-2.7-6.1-6.1 s2.7-6.1,6.1-6.1s6.1,2.7,6.1,6.1S33.4,41.6,30,41.6z"></path>
  <path d="M30,31.1c-2.4,0-4.3,2-4.3,4.3s1.9,4.3,4.3,4.3s4.3-2,4.3-4.3S32.4,31.1,30,31.1z M30,38.1c-1.4,0-2.6-1.2-2.6-2.6 c0-1.4,1.2-2.6,2.6-2.6s2.6,1.2,2.6,2.6S31.4,38.1,30,38.1z"></path>
  <path d="M49.1,17.2H10.9c-0.5,0-0.9,0.4-0.9,0.9v5.2c0,1.4,1.2,2.6,2.6,2.6h34.8c1.4,0,2.6-1.2,2.6-2.6v-5.2 C50,17.6,49.6,17.2,49.1,17.2z M48.3,23.3c0,0.5-0.4,0.9-0.9,0.9H12.6c-0.5,0-0.9-0.4-0.9-0.9V19h36.5L48.3,23.3L48.3,23.3z"></path>
  <path d="M40.4 29.400000000000002A0.9 0.9 0 1 0 40.4 31.2A0.9 0.9 0 1 0 40.4 29.400000000000002Z"></path>
</svg>