<svg xmlns="http://www.w3.org/2000/svg" id="1m2y0jis1__ks3h7586g__图层_1" x="0" y="0" viewBox="0 0 60 60" class="1m2y0jis1__design-iconfont" width="128" height="128">
  <style></style>
  <path d="M26,21.8c-0.6,0-1,0.4-1,1v2c0,0.6,0.4,1,1,1h2c0.6,0,1-0.4,1-1v-2c0-0.6-0.4-1-1-1H26z"></path>
  <path d="M25,28.8c0-0.6,0.4-1,1-1h2c0.6,0,1,0.4,1,1v2c0,0.6-0.4,1-1,1h-2c-0.6,0-1-0.4-1-1V28.8z"></path>
  <path d="M26,33.8c-0.6,0-1,0.4-1,1v2c0,0.6,0.4,1,1,1h2c0.6,0,1-0.4,1-1v-2c0-0.6-0.4-1-1-1H26z"></path>
  <path d="M31,22.8c0-0.6,0.4-1,1-1h2c0.6,0,1,0.4,1,1v2c0,0.6-0.4,1-1,1h-2c-0.6,0-1-0.4-1-1V22.8z"></path>
  <path d="M32,27.8c-0.6,0-1,0.4-1,1v2c0,0.6,0.4,1,1,1h2c0.6,0,1-0.4,1-1v-2c0-0.6-0.4-1-1-1H32z"></path>
  <path d="M31,34.8c0-0.6,0.4-1,1-1h2c0.6,0,1,0.4,1,1v2c0,0.6-0.4,1-1,1h-2c-0.6,0-1-0.4-1-1V34.8z"></path>
  <path d="M19,12.2c0-1.3,1.3-2.3,2.6-1.9l18,5.4c0.8,0.3,1.4,1,1.4,1.9v4.7l6,3.4c0.6,0.4,1,1,1,1.7v20.4h1 c0.6,0,1,0.4,1,1s-0.4,1-1,1H11c-0.6,0-1-0.4-1-1s0.4-1,1-1h1v-30c0-1.1,0.9-2,2-2h5V12.2z M46,47.8V27.4l-5-2.9v23.3H46z M39,22.8 C39,22.8,39,22.8,39,22.8v25h-5v-5c0-1.1-0.9-2-2-2h-4c-1.1,0-2,0.9-2,2v5h-5V12.2l18,5.4V22.8z M19,47.8h-5v-30h5V47.8z M28,47.8 h4v-5h-4V47.8z" fill-rule="evenodd" clip-rule="evenodd"></path>
</svg>