<svg xmlns="http://www.w3.org/2000/svg" id="p9b6jhdjv__pmkr4mshj__图层_1" x="0" y="0" viewBox="0 0 60 60" class="p9b6jhdjv__design-iconfont" width="128" height="128">
  <style></style>
  <path d="M49.9,26.7l-3.6-6.2c-0.1-0.2-0.2-0.3-0.4-0.3l-15.7-6.1c-0.2-0.1-0.4-0.1-0.6,0l-15.7,6.1c-0.2,0.1-0.3,0.2-0.4,0.3 l-3.6,6.2C10,26.9,10,27.2,10,27.4c0.1,0.2,0.2,0.4,0.5,0.5l3.1,1.2v10c0,0.3,0.2,0.6,0.5,0.7l15.7,6.1c0.1,0,0.2,0.1,0.3,0.1 c0.1,0,0.2,0,0.3-0.1l15.7-6.1c0.3-0.1,0.5-0.4,0.5-0.7V29l3.1-1.2c0.2-0.1,0.4-0.3,0.5-0.5C50,27.2,50,26.9,49.9,26.7L49.9,26.7z M30,15.7L43.5,21L30,26.2L16.5,21L30,15.7z M11.9,26.7l2.8-4.8l14.2,5.5l-2.8,4.8L11.9,26.7z M15.1,29.7l11,4.3 c0.4,0.1,0.8,0,1-0.3l2.1-3.6v14l-14.1-5.5V29.7z M44.9,38.5L30.8,44V30l2.1,3.6c0.2,0.3,0.6,0.5,1,0.3l11-4.3L44.9,38.5L44.9,38.5 z M33.9,32.2l-2.8-4.8l14.2-5.5l2.8,4.8L33.9,32.2z"></path>
</svg>