<svg xmlns="http://www.w3.org/2000/svg" id="q8vqkfldn__luk8qeuyo__图层_1" x="0" y="0" viewBox="0 0 60 60" class="q8vqkfldn__design-iconfont" width="128" height="128">
  <style></style>
  <path d="M49.4,50H10.6c-0.3,0-0.6-0.3-0.6-0.6s0.3-0.6,0.6-0.6h38.8c0.3,0,0.6,0.3,0.6,0.6S49.7,50,49.4,50z"></path>
  <path d="M49.4,50.1H10.6c-0.4,0-0.7-0.3-0.7-0.7s0.3-0.7,0.7-0.7h38.8c0.4,0,0.7,0.3,0.7,0.7S49.8,50.1,49.4,50.1z M10.6,49 c-0.3,0-0.5,0.2-0.5,0.5s0.2,0.5,0.5,0.5h38.8c0.3,0,0.5-0.2,0.5-0.5S49.7,49,49.4,49H10.6z"></path>
  <path d="M25.5,50H13.4c-0.3,0-0.6-0.3-0.6-0.6V33.2c0-0.7,0.5-1.2,1.2-1.2h10.9c0.7,0,1.2,0.5,1.2,1.2v16.2 C26.1,49.7,25.8,50,25.5,50z M14,48.8h10.9V33.2c0,0,0,0,0,0H14c0,0,0,0,0,0V48.8z"></path>
  <path d="M25.5,50.1H13.4c-0.4,0-0.7-0.3-0.7-0.7V33.2c0-0.7,0.6-1.3,1.3-1.3h10.9c0.7,0,1.3,0.6,1.3,1.3v16.2 C26.2,49.8,25.9,50.1,25.5,50.1z M14,32.2c-0.6,0-1.1,0.5-1.1,1.1v16.2c0,0.3,0.2,0.5,0.5,0.5h12.1c0.3,0,0.5-0.2,0.5-0.5V33.2 c0-0.6-0.5-1.1-1.1-1.1H14z M25,49H13.9V33.2c0-0.1,0.1-0.2,0.2-0.2h10.9c0.1,0,0.2,0.1,0.2,0.2V49z M14.1,48.7h10.7V33.3H14.1 V48.7z"></path>
  <path d="M35.7,50h-6.2c-0.3,0-0.6-0.3-0.6-0.6v-32c0-0.4,0.2-0.8,0.6-1c0.4-0.2,0.8-0.1,1.2,0.1l5.1,4.1c0.3,0.2,0.4,0.5,0.4,0.9 v27.8C36.3,49.7,36,50,35.7,50z M30.1,48.8h5V21.6l-5-4V48.8z"></path>
  <path d="M35.7,50.1h-6.2c-0.4,0-0.7-0.3-0.7-0.7v-32c0-0.5,0.3-0.9,0.7-1.1c0.4-0.2,0.9-0.1,1.3,0.1l5.1,4.1 c0.3,0.2,0.5,0.6,0.5,1v27.8C36.4,49.8,36.1,50.1,35.7,50.1z M30,16.5c-0.1,0-0.3,0-0.4,0.1c-0.3,0.2-0.6,0.5-0.6,0.9v32 c0,0.3,0.2,0.5,0.5,0.5h6.2c0.3,0,0.5-0.2,0.5-0.5V21.6c0-0.3-0.1-0.6-0.4-0.8l-5.1-4.1C30.4,16.5,30.2,16.5,30,16.5z M35.2,49H30 V17.3l5.3,4.2V49z M30.2,48.7H35v-27l-4.8-3.8V48.7z"></path>
  <path d="M22.5,36.3h-6.1c-0.3,0-0.6-0.3-0.6-0.6s0.3-0.6,0.6-0.6h6.1c0.3,0,0.6,0.3,0.6,0.6S22.8,36.3,22.5,36.3z"></path>
  <path d="M22.5,36.4h-6.1c-0.4,0-0.7-0.3-0.7-0.7S16,35,16.4,35h6.1c0.4,0,0.7,0.3,0.7,0.7S22.9,36.4,22.5,36.4z M16.4,35.2 c-0.3,0-0.5,0.2-0.5,0.5s0.2,0.5,0.5,0.5h6.1c0.3,0,0.5-0.2,0.5-0.5s-0.2-0.5-0.5-0.5H16.4z"></path>
  <path d="M22.5,38.9h-6.1c-0.3,0-0.6-0.3-0.6-0.6s0.3-0.6,0.6-0.6h6.1c0.3,0,0.6,0.3,0.6,0.6S22.8,38.9,22.5,38.9z"></path>
  <path d="M22.5,39.1h-6.1c-0.4,0-0.7-0.3-0.7-0.7s0.3-0.7,0.7-0.7h6.1c0.4,0,0.7,0.3,0.7,0.7S22.9,39.1,22.5,39.1z M16.4,37.9 c-0.3,0-0.5,0.2-0.5,0.5s0.2,0.5,0.5,0.5h6.1c0.3,0,0.5-0.2,0.5-0.5s-0.2-0.5-0.5-0.5H16.4z"></path>
  <path d="M22.5,41.6h-6.1c-0.3,0-0.6-0.3-0.6-0.6c0-0.3,0.3-0.6,0.6-0.6h6.1c0.3,0,0.6,0.3,0.6,0.6C23.1,41.3,22.8,41.6,22.5,41.6z"></path>
  <path d="M22.5,41.7h-6.1c-0.4,0-0.7-0.3-0.7-0.7s0.3-0.7,0.7-0.7h6.1c0.4,0,0.7,0.3,0.7,0.7S22.9,41.7,22.5,41.7z M16.4,40.6 c-0.3,0-0.5,0.2-0.5,0.5s0.2,0.5,0.5,0.5h6.1c0.3,0,0.5-0.2,0.5-0.5s-0.2-0.5-0.5-0.5H16.4z"></path>
  <path d="M22.5,44.3h-6.1c-0.3,0-0.6-0.3-0.6-0.6s0.3-0.6,0.6-0.6h6.1c0.3,0,0.6,0.3,0.6,0.6S22.8,44.3,22.5,44.3z"></path>
  <path d="M22.5,44.4h-6.1c-0.4,0-0.7-0.3-0.7-0.7S16,43,16.4,43h6.1c0.4,0,0.7,0.3,0.7,0.7S22.9,44.4,22.5,44.4z M16.4,43.2 c-0.3,0-0.5,0.2-0.5,0.5s0.2,0.5,0.5,0.5h6.1c0.3,0,0.5-0.2,0.5-0.5s-0.2-0.5-0.5-0.5H16.4z"></path>
  <path d="M22.5,46.9h-6.1c-0.3,0-0.6-0.3-0.6-0.6s0.3-0.6,0.6-0.6h6.1c0.3,0,0.6,0.3,0.6,0.6S22.8,46.9,22.5,46.9z"></path>
  <path d="M22.5,47.1h-6.1c-0.4,0-0.7-0.3-0.7-0.7s0.3-0.7,0.7-0.7h6.1c0.4,0,0.7,0.3,0.7,0.7S22.9,47.1,22.5,47.1z M16.4,45.9 c-0.3,0-0.5,0.2-0.5,0.5s0.2,0.5,0.5,0.5h6.1c0.3,0,0.5-0.2,0.5-0.5s-0.2-0.5-0.5-0.5H16.4z"></path>
  <path d="M38.5,46.9c-0.3,0-0.6-0.3-0.6-0.6v-8c0-0.3,0.3-0.6,0.6-0.6S39,38,39,38.3v8C39,46.7,38.8,46.9,38.5,46.9z"></path>
  <path d="M38.5,47.1c-0.4,0-0.7-0.3-0.7-0.7v-8c0-0.4,0.3-0.7,0.7-0.7s0.7,0.3,0.7,0.7v8C39.2,46.8,38.9,47.1,38.5,47.1z M38.5,37.8c-0.3,0-0.5,0.2-0.5,0.5v8c0,0.3,0.2,0.5,0.5,0.5s0.5-0.2,0.5-0.5v-8C38.9,38.1,38.7,37.8,38.5,37.8z"></path>
  <path d="M41.1,46.9c-0.3,0-0.6-0.3-0.6-0.6v-8c0-0.3,0.3-0.6,0.6-0.6c0.3,0,0.6,0.3,0.6,0.6v8C41.7,46.7,41.5,46.9,41.1,46.9z"></path>
  <path d="M41.1,47.1c-0.4,0-0.7-0.3-0.7-0.7v-8c0-0.4,0.3-0.7,0.7-0.7s0.7,0.3,0.7,0.7v8C41.8,46.8,41.5,47.1,41.1,47.1z M41.1,37.8c-0.3,0-0.5,0.2-0.5,0.5v8c0,0.3,0.2,0.5,0.5,0.5s0.5-0.2,0.5-0.5v-8C41.6,38.1,41.4,37.8,41.1,37.8z"></path>
  <path d="M43.8,46.9c-0.3,0-0.6-0.3-0.6-0.6v-8c0-0.3,0.3-0.6,0.6-0.6s0.6,0.3,0.6,0.6v8C44.4,46.7,44.1,46.9,43.8,46.9z"></path>
  <path d="M43.8,47.1c-0.4,0-0.7-0.3-0.7-0.7v-8c0-0.4,0.3-0.7,0.7-0.7s0.7,0.3,0.7,0.7v8C44.5,46.8,44.2,47.1,43.8,47.1z M43.8,37.8c-0.3,0-0.5,0.2-0.5,0.5v8c0,0.3,0.2,0.5,0.5,0.5s0.5-0.2,0.5-0.5v-8C44.3,38.1,44.1,37.8,43.8,37.8z"></path>
  <path d="M21.4,30.9c-0.3,0-0.6-0.3-0.6-0.6v-3.7c0-0.3,0.3-0.6,0.6-0.6c0.3,0,0.6,0.3,0.6,0.6v3.7C21.9,30.6,21.7,30.9,21.4,30.9z"></path>
  <path d="M21.4,31c-0.4,0-0.7-0.3-0.7-0.7v-3.7c0-0.4,0.3-0.7,0.7-0.7s0.7,0.3,0.7,0.7v3.7C22.1,30.7,21.7,31,21.4,31z M21.4,26.2 c-0.3,0-0.5,0.2-0.5,0.5v3.7c0,0.3,0.2,0.5,0.5,0.5s0.5-0.2,0.5-0.5v-3.7C21.8,26.4,21.6,26.2,21.4,26.2z"></path>
  <path d="M24,30.9c-0.3,0-0.6-0.3-0.6-0.6v-3.7c0-0.3,0.3-0.6,0.6-0.6s0.6,0.3,0.6,0.6v3.7C24.6,30.6,24.4,30.9,24,30.9z"></path>
  <path d="M24,31c-0.4,0-0.7-0.3-0.7-0.7v-3.7c0-0.4,0.3-0.7,0.7-0.7s0.7,0.3,0.7,0.7v3.7C24.7,30.7,24.4,31,24,31z M24,26.2 c-0.3,0-0.5,0.2-0.5,0.5v3.7c0,0.3,0.2,0.5,0.5,0.5s0.5-0.2,0.5-0.5v-3.7C24.5,26.4,24.3,26.2,24,26.2z"></path>
  <path d="M26.7,30.9c-0.3,0-0.6-0.3-0.6-0.6v-3.7c0-0.3,0.3-0.6,0.6-0.6c0.3,0,0.6,0.3,0.6,0.6v3.7C27.3,30.6,27,30.9,26.7,30.9z"></path>
  <path d="M26.7,31c-0.4,0-0.7-0.3-0.7-0.7v-3.7c0-0.4,0.3-0.7,0.7-0.7s0.7,0.3,0.7,0.7v3.7C27.4,30.7,27.1,31,26.7,31z M26.7,26.2 c-0.3,0-0.5,0.2-0.5,0.5v3.7c0,0.3,0.2,0.5,0.5,0.5s0.5-0.2,0.5-0.5v-3.7C27.2,26.4,27,26.2,26.7,26.2z"></path>
  <g>
    <path d="M33.3,38.9h-1.3c-0.3,0-0.6-0.3-0.6-0.6s0.3-0.6,0.6-0.6h1.3c0.3,0,0.6,0.3,0.6,0.6S33.6,38.9,33.3,38.9z"></path>
    <path d="M33.3,39.1h-1.3c-0.4,0-0.7-0.3-0.7-0.7s0.3-0.7,0.7-0.7h1.3c0.4,0,0.7,0.3,0.7,0.7S33.7,39.1,33.3,39.1z M31.9,37.9 c-0.3,0-0.5,0.2-0.5,0.5s0.2,0.5,0.5,0.5h1.3c0.3,0,0.5-0.2,0.5-0.5s-0.2-0.5-0.5-0.5H31.9z"></path>
  </g>
  <g>
    <path d="M33.3,41.6h-1.3c-0.3,0-0.6-0.3-0.6-0.6c0-0.3,0.3-0.6,0.6-0.6h1.3c0.3,0,0.6,0.3,0.6,0.6C33.9,41.3,33.6,41.6,33.3,41.6z"></path>
    <path d="M33.3,41.7h-1.3c-0.4,0-0.7-0.3-0.7-0.7s0.3-0.7,0.7-0.7h1.3c0.4,0,0.7,0.3,0.7,0.7S33.7,41.7,33.3,41.7z M31.9,40.6 c-0.3,0-0.5,0.2-0.5,0.5s0.2,0.5,0.5,0.5h1.3c0.3,0,0.5-0.2,0.5-0.5s-0.2-0.5-0.5-0.5H31.9z"></path>
  </g>
  <g>
    <path d="M33.3,44.3h-1.3c-0.3,0-0.6-0.3-0.6-0.6s0.3-0.6,0.6-0.6h1.3c0.3,0,0.6,0.3,0.6,0.6S33.6,44.3,33.3,44.3z"></path>
    <path d="M33.3,44.4h-1.3c-0.4,0-0.7-0.3-0.7-0.7s0.3-0.7,0.7-0.7h1.3c0.4,0,0.7,0.3,0.7,0.7S33.7,44.4,33.3,44.4z M31.9,43.2 c-0.3,0-0.5,0.2-0.5,0.5s0.2,0.5,0.5,0.5h1.3c0.3,0,0.5-0.2,0.5-0.5s-0.2-0.5-0.5-0.5H31.9z"></path>
  </g>
  <g>
    <path d="M33.3,46.9h-1.3c-0.3,0-0.6-0.3-0.6-0.6s0.3-0.6,0.6-0.6h1.3c0.3,0,0.6,0.3,0.6,0.6S33.6,46.9,33.3,46.9z"></path>
    <path d="M33.3,47.1h-1.3c-0.4,0-0.7-0.3-0.7-0.7s0.3-0.7,0.7-0.7h1.3c0.4,0,0.7,0.3,0.7,0.7S33.7,47.1,33.3,47.1z M31.9,45.9 c-0.3,0-0.5,0.2-0.5,0.5s0.2,0.5,0.5,0.5h1.3c0.3,0,0.5-0.2,0.5-0.5s-0.2-0.5-0.5-0.5H31.9z"></path>
  </g>
  <g>
    <path d="M33.3,28.2h-1.3c-0.3,0-0.6-0.3-0.6-0.6c0-0.3,0.3-0.6,0.6-0.6h1.3c0.3,0,0.6,0.3,0.6,0.6C33.9,28,33.6,28.2,33.3,28.2z"></path>
    <path d="M33.3,28.4h-1.3c-0.4,0-0.7-0.3-0.7-0.7s0.3-0.7,0.7-0.7h1.3c0.4,0,0.7,0.3,0.7,0.7S33.7,28.4,33.3,28.4z M31.9,27.2 c-0.3,0-0.5,0.2-0.5,0.5s0.2,0.5,0.5,0.5h1.3c0.3,0,0.5-0.2,0.5-0.5s-0.2-0.5-0.5-0.5H31.9z"></path>
  </g>
  <g>
    <path d="M33.3,30.9h-1.3c-0.3,0-0.6-0.3-0.6-0.6c0-0.3,0.3-0.6,0.6-0.6h1.3c0.3,0,0.6,0.3,0.6,0.6C33.9,30.6,33.6,30.9,33.3,30.9z"></path>
    <path d="M33.3,31h-1.3c-0.4,0-0.7-0.3-0.7-0.7s0.3-0.7,0.7-0.7h1.3c0.4,0,0.7,0.3,0.7,0.7S33.7,31,33.3,31z M31.9,29.9 c-0.3,0-0.5,0.2-0.5,0.5s0.2,0.5,0.5,0.5h1.3c0.3,0,0.5-0.2,0.5-0.5s-0.2-0.5-0.5-0.5H31.9z"></path>
  </g>
  <g>
    <path d="M33.3,25.6h-1.3c-0.3,0-0.6-0.3-0.6-0.6s0.3-0.6,0.6-0.6h1.3c0.3,0,0.6,0.3,0.6,0.6S33.6,25.6,33.3,25.6z"></path>
    <path d="M33.3,25.7h-1.3c-0.4,0-0.7-0.3-0.7-0.7s0.3-0.7,0.7-0.7h1.3c0.4,0,0.7,0.3,0.7,0.7S33.7,25.7,33.3,25.7z M31.9,24.5 c-0.3,0-0.5,0.2-0.5,0.5s0.2,0.5,0.5,0.5h1.3c0.3,0,0.5-0.2,0.5-0.5s-0.2-0.5-0.5-0.5H31.9z"></path>
  </g>
  <g>
    <path d="M33.3,33.6h-1.3c-0.3,0-0.6-0.3-0.6-0.6c0-0.3,0.3-0.6,0.6-0.6h1.3c0.3,0,0.6,0.3,0.6,0.6C33.9,33.3,33.6,33.6,33.3,33.6z"></path>
    <path d="M33.3,33.7h-1.3c-0.4,0-0.7-0.3-0.7-0.7s0.3-0.7,0.7-0.7h1.3c0.4,0,0.7,0.3,0.7,0.7S33.7,33.7,33.3,33.7z M31.9,32.5 c-0.3,0-0.5,0.2-0.5,0.5s0.2,0.5,0.5,0.5h1.3c0.3,0,0.5-0.2,0.5-0.5s-0.2-0.5-0.5-0.5H31.9z"></path>
  </g>
  <g>
    <path d="M33.3,36.3h-1.3c-0.3,0-0.6-0.3-0.6-0.6s0.3-0.6,0.6-0.6h1.3c0.3,0,0.6,0.3,0.6,0.6S33.6,36.3,33.3,36.3z"></path>
    <path d="M33.3,36.4h-1.3c-0.4,0-0.7-0.3-0.7-0.7s0.3-0.7,0.7-0.7h1.3c0.4,0,0.7,0.3,0.7,0.7S33.7,36.4,33.3,36.4z M31.9,35.2 c-0.3,0-0.5,0.2-0.5,0.5s0.2,0.5,0.5,0.5h1.3c0.3,0,0.5-0.2,0.5-0.5s-0.2-0.5-0.5-0.5H31.9z"></path>
  </g>
  <g>
    <path d="M24.4,15.3c-0.1,0-0.3-0.1-0.4-0.2c-1.7-1.7-4.6-1.7-6.3,0c-0.2,0.2-0.6,0.2-0.8,0c-0.2-0.2-0.2-0.6,0-0.8 c2.2-2.2,5.8-2.2,7.9,0c0.2,0.2,0.2,0.6,0,0.8C24.7,15.3,24.6,15.3,24.4,15.3z"></path>
    <path d="M24.4,15.5c-0.2,0-0.4-0.1-0.5-0.2c-1.7-1.7-4.4-1.7-6.1,0c-0.3,0.3-0.7,0.3-1,0c-0.3-0.3-0.3-0.7,0-1 c1.1-1.1,2.5-1.7,4.1-1.7c1.5,0,3,0.6,4.1,1.7c0.1,0.1,0.2,0.3,0.2,0.5c0,0.2-0.1,0.4-0.2,0.5C24.8,15.4,24.6,15.5,24.4,15.5z M20.9,13.7c1.2,0,2.3,0.4,3.2,1.3c0.2,0.2,0.5,0.2,0.7,0c0.1-0.1,0.1-0.2,0.1-0.3c0-0.1,0-0.2-0.1-0.3c-1-1-2.4-1.6-3.9-1.6 S18,13.4,17,14.4c-0.2,0.2-0.2,0.5,0,0.7s0.5,0.2,0.7,0C18.5,14.2,19.7,13.7,20.9,13.7z"></path>
    <g>
      <path d="M26.2,13.4c-0.1,0-0.3-0.1-0.4-0.2c-1.3-1.3-3-2-4.9-2c-1.8,0-3.6,0.7-4.9,2c-0.2,0.2-0.6,0.2-0.8,0 c-0.2-0.2-0.2-0.6,0-0.8c1.5-1.5,3.6-2.4,5.7-2.4c0,0,0,0,0,0c2.2,0,4.2,0.8,5.7,2.4c0.2,0.2,0.2,0.6,0,0.8 C26.5,13.3,26.3,13.4,26.2,13.4z"></path>
      <path d="M26.2,13.5c-0.2,0-0.4-0.1-0.5-0.2c-1.3-1.3-3-2-4.8-2s-3.5,0.7-4.8,2c-0.3,0.3-0.7,0.3-1,0c-0.3-0.3-0.3-0.7,0-1 c1.5-1.5,3.6-2.4,5.8-2.4c2.2,0,4.3,0.9,5.8,2.4c0.1,0.1,0.2,0.3,0.2,0.5c0,0.2-0.1,0.4-0.2,0.5C26.5,13.4,26.4,13.5,26.2,13.5z M20.9,11c1.9,0,3.6,0.7,5,2.1c0.2,0.2,0.5,0.2,0.7,0c0.1-0.1,0.1-0.2,0.1-0.3s0-0.2-0.1-0.3C25,11,23,10.1,20.9,10.1 c-2.1,0-4.1,0.8-5.6,2.3c-0.2,0.2-0.2,0.5,0,0.7c0.2,0.2,0.5,0.2,0.7,0C17.2,11.8,19,11,20.9,11z"></path>
    </g>
  </g>
  <g>
    <path d="M20.9,19.9c-1.2,0-2.3-1-2.3-2.3c0-1.2,1-2.3,2.3-2.3s2.3,1,2.3,2.3C23.1,18.9,22.1,19.9,20.9,19.9z M20.9,16.6 c-0.6,0-1.1,0.5-1.1,1.1c0,0.6,0.5,1.1,1.1,1.1c0.6,0,1.1-0.5,1.1-1.1C22,17.1,21.5,16.6,20.9,16.6z"></path>
    <path d="M20.9,20c-1.3,0-2.4-1.1-2.4-2.4c0-1.3,1.1-2.4,2.4-2.4s2.4,1.1,2.4,2.4C23.3,19,22.2,20,20.9,20z M20.9,15.5 c-1.2,0-2.1,1-2.1,2.1s1,2.1,2.1,2.1s2.1-1,2.1-2.1S22.1,15.5,20.9,15.5z M20.9,18.9c-0.7,0-1.2-0.5-1.2-1.2s0.5-1.2,1.2-1.2 c0.7,0,1.2,0.5,1.2,1.2S21.5,18.9,20.9,18.9z M20.9,16.7c-0.5,0-1,0.4-1,1c0,0.5,0.4,1,1,1s1-0.4,1-1 C21.8,17.1,21.4,16.7,20.9,16.7z"></path>
  </g>
  <g>
    <path d="M47.3,24c-0.1,0-0.3-0.1-0.4-0.2c-0.8-0.8-1.9-1.3-3.1-1.3c-1.2,0-2.3,0.5-3.1,1.3c-0.2,0.2-0.6,0.2-0.8,0 c-0.2-0.2-0.2-0.6,0-0.8c2.2-2.2,5.7-2.2,7.9,0c0.2,0.2,0.2,0.6,0,0.8C47.6,23.9,47.5,24,47.3,24z"></path>
    <path d="M47.3,24.1c-0.2,0-0.4-0.1-0.5-0.2c-0.8-0.8-1.9-1.3-3-1.3s-2.2,0.4-3,1.3c-0.3,0.3-0.7,0.3-1,0 c-0.1-0.1-0.2-0.3-0.2-0.5c0-0.2,0.1-0.4,0.2-0.5c2.2-2.2,5.9-2.2,8.1,0c0.3,0.3,0.3,0.7,0,1C47.7,24,47.5,24.1,47.3,24.1z M43.8,22.4c1.2,0,2.4,0.5,3.2,1.3c0.2,0.2,0.5,0.2,0.7,0c0.2-0.2,0.2-0.5,0-0.7c-2.1-2.1-5.6-2.1-7.7,0 c-0.1,0.1-0.1,0.2-0.1,0.3s0,0.2,0.1,0.3c0.2,0.2,0.5,0.2,0.7,0C41.4,22.8,42.5,22.4,43.8,22.4z"></path>
    <g>
      <path d="M49,22c-0.1,0-0.3-0.1-0.4-0.2c-2.7-2.7-7.1-2.7-9.7,0c-0.2,0.2-0.6,0.2-0.8,0s-0.2-0.6,0-0.8c3.1-3.1,8.3-3.1,11.4,0 c0.2,0.2,0.2,0.6,0,0.8C49.3,21.9,49.2,22,49,22z"></path>
      <path d="M49,22.1c-0.2,0-0.4-0.1-0.5-0.2c-2.6-2.6-6.9-2.6-9.6,0c-0.3,0.3-0.7,0.3-1,0c-0.3-0.3-0.3-0.7,0-1 c3.2-3.2,8.4-3.2,11.6,0c0.3,0.3,0.3,0.7,0,1C49.4,22,49.2,22.1,49,22.1z M43.8,19.7c1.8,0,3.6,0.7,5,2.1c0.2,0.2,0.5,0.2,0.7,0 c0.2-0.2,0.2-0.5,0-0.7c-3.1-3.1-8.1-3.1-11.2,0c-0.2,0.2-0.2,0.5,0,0.7c0.2,0.2,0.5,0.2,0.7,0C40.2,20.4,42,19.7,43.8,19.7z"></path>
    </g>
    <g>
      <path d="M43.8,28.5c-1.2,0-2.3-1-2.3-2.3c0-1.2,1-2.3,2.3-2.3s2.3,1,2.3,2.3C46,27.5,45,28.5,43.8,28.5z M43.8,25.2 c-0.6,0-1.1,0.5-1.1,1.1c0,0.6,0.5,1.1,1.1,1.1s1.1-0.5,1.1-1.1C44.9,25.7,44.4,25.2,43.8,25.2z"></path>
      <path d="M43.8,28.7c-1.3,0-2.4-1.1-2.4-2.4c0-1.3,1.1-2.4,2.4-2.4s2.4,1.1,2.4,2.4C46.1,27.6,45.1,28.7,43.8,28.7z M43.8,24.1 c-1.2,0-2.1,1-2.1,2.1s1,2.1,2.1,2.1s2.1-1,2.1-2.1S44.9,24.1,43.8,24.1z M43.8,27.5c-0.7,0-1.2-0.5-1.2-1.2s0.5-1.2,1.2-1.2 s1.2,0.5,1.2,1.2S44.4,27.5,43.8,27.5z M43.8,25.3c-0.5,0-1,0.4-1,1c0,0.5,0.4,1,1,1s1-0.4,1-1C44.7,25.7,44.3,25.3,43.8,25.3z"></path>
    </g>
  </g>
  <g>
    <path d="M29.5,50h-4c-0.3,0-0.6-0.3-0.6-0.6V33.2c0,0,0,0,0,0h-6.3c-0.3,0-0.6-0.3-0.6-0.6v-8.2c0-0.7,0.5-1.2,1.2-1.2h3.4 c0.3,0,0.6,0.3,0.6,0.6c0,0.3-0.3,0.6-0.6,0.6h-3.4c0,0,0,0,0,0V32h5.7c0.7,0,1.2,0.5,1.2,1.2v15.6h2.8V24.4h-3.5 c-0.3,0-0.6-0.3-0.6-0.6c0-0.3,0.3-0.6,0.6-0.6h4.1c0.3,0,0.6,0.3,0.6,0.6v25.6C30.1,49.7,29.8,50,29.5,50z"></path>
    <path d="M29.5,50.1h-4c-0.4,0-0.7-0.3-0.7-0.7V33.3h-6.2c-0.4,0-0.7-0.3-0.7-0.7v-8.2c0-0.7,0.6-1.3,1.3-1.3h3.4 c0.4,0,0.7,0.3,0.7,0.7s-0.3,0.7-0.7,0.7h-3.4v7.4h5.6c0.7,0,1.3,0.6,1.3,1.3v15.5h2.6V24.5h-3.4c-0.4,0-0.7-0.3-0.7-0.7 s0.3-0.7,0.7-0.7h4.1c0.4,0,0.7,0.3,0.7,0.7v25.6C30.2,49.8,29.9,50.1,29.5,50.1z M19.2,23.3c-0.6,0-1.1,0.5-1.1,1.1v8.2 c0,0.3,0.2,0.5,0.5,0.5h6.3c0.1,0,0.2,0.1,0.2,0.2v16.2c0,0.3,0.2,0.5,0.5,0.5h4c0.3,0,0.5-0.2,0.5-0.5V23.8 c0-0.3-0.2-0.5-0.5-0.5h-4.1c-0.3,0-0.5,0.2-0.5,0.5s0.2,0.5,0.5,0.5H29V49H26V33.2c0-0.6-0.5-1.1-1.1-1.1H19v-7.7 c0-0.1,0.1-0.2,0.2-0.2h3.4c0.3,0,0.5-0.2,0.5-0.5s-0.2-0.5-0.5-0.5H19.2z"></path>
  </g>
  <g>
    <path d="M46.6,50H35.7c-0.3,0-0.6-0.3-0.6-0.6V35.1c0-0.3,0.3-0.6,0.6-0.6H46c0.7,0,1.2,0.5,1.2,1.2V41c0,0.3-0.3,0.6-0.6,0.6 S46,41.3,46,41v-5.2c0,0,0,0,0,0h-9.7v13.1H46v-5.1c0-0.3,0.3-0.6,0.6-0.6s0.6,0.3,0.6,0.6v5.7C47.2,49.7,46.9,50,46.6,50z"></path>
    <path d="M46.6,50.1H35.7c-0.4,0-0.7-0.3-0.7-0.7V35.1c0-0.4,0.3-0.7,0.7-0.7H46c0.7,0,1.3,0.6,1.3,1.3V41c0,0.4-0.3,0.7-0.7,0.7 s-0.7-0.3-0.7-0.7v-5.1h-9.5v12.9h9.5v-5c0-0.4,0.3-0.7,0.7-0.7s0.7,0.3,0.7,0.7v5.7C47.3,49.8,47,50.1,46.6,50.1z M35.7,34.7 c-0.3,0-0.5,0.2-0.5,0.5v14.3c0,0.3,0.2,0.5,0.5,0.5h10.9c0.3,0,0.5-0.2,0.5-0.5v-5.7c0-0.3-0.2-0.5-0.5-0.5s-0.5,0.2-0.5,0.5V49 h-10V35.6H46c0.1,0,0.2,0.1,0.2,0.2V41c0,0.3,0.2,0.5,0.5,0.5s0.5-0.2,0.5-0.5v-5.2c0-0.6-0.5-1.1-1.1-1.1H35.7z"></path>
  </g>
</svg>