<svg xmlns="http://www.w3.org/2000/svg" viewBox="0 0 60 60" class="6h8djvj39__design-iconfont" width="128" height="128">
  <path d="M18.4,29.8v-1.2c0-1.1-0.9-2-2-2h-0.5L16,19c0-0.6-0.5-1.1-1.1-1.1h-0.1c-0.6,0-1.1,0.5-1.1,1.1v7.6H9.3V19 c0-0.6-0.5-1.1-1.1-1.1H8.1C7.5,17.9,7,18.4,7,19v7.7c-1,0.1-1.8,0.9-1.8,2v1.2H4.9c-1.1,0-2,0.9-2,2v11.9c0,1.1,0.9,2,2,2h0.3 c0.1,1,0.9,1.8,2,1.8h9.3c1,0,1.9-0.8,2-1.8c1.1,0,2-0.9,2-2v-12C20.4,30.7,19.5,29.8,18.4,29.8z M14.6,19c0-0.1,0.1-0.1,0.1-0.1 h0.1c0.1,0,0.1,0.1,0.1,0.1v7.6h-0.3C14.6,26.6,14.6,19,14.6,19z M19.4,43.6c0,0.1,0,0.1,0,0.2c-0.1,0.5-0.5,0.8-1,0.8h-4.3 c-0.5,0-1-0.5-1-1V31.8c0-0.5,0.5-1,1-1h4.3c0.5,0,1,0.5,1,1V43.6z M10.1,31.8v11.9c0,0.1,0,0.1,0,0.2c-0.1,0.5-0.5,0.8-1,0.8H4.9 c-0.5,0-1-0.5-1-1V31.8c0-0.5,0.5-1,1-1h4.3C9.7,30.8,10.1,31.2,10.1,31.8z M9.8,45.6c1.2,0,1.3-1,1.3-2V31.7c0-1.1-0.9-2-2-2h-3 v-1.2c0-0.5,0.5-1,1-1h9.3c0.5,0,1,0.5,1,1v1.2h-3.3c-1.1,0-2,0.9-2,2v11.9c0,1.1,0.9,2,2,2h3.3l0,0c-0.1,0.5-0.5,0.8-1,0.8H7.2 c-0.5,0-0.9-0.4-1-0.8H9.8z M8,19c0-0.1,0.1-0.1,0.1-0.1h0.1c0.1,0,0.1,0.1,0.1,0.1v7.6H8V19z"></path>
  <path d="M16.5,47.7H7.2c-1.1,0-1.9-0.8-2.1-1.8H4.9c-1.1,0-2.1-0.9-2.1-2.1V31.9c0-1.1,0.9-2.1,2.1-2.1h0.2v-1.1 c0-1.1,0.8-1.9,1.8-2.1V19c0-0.6,0.5-1.2,1.2-1.2h0.1c0.6,0,1.2,0.5,1.2,1.2v7.5h4.3V19c0-0.6,0.5-1.2,1.2-1.2h0.1 c0.6,0,1.2,0.5,1.2,1.2L16,26.5h0.4c1.1,0,2.1,0.9,2.1,2.1v1.1c1.1,0,2,0.9,2.1,2.1l0,12c0,1.1-0.9,2-2,2.1 C18.4,46.9,17.5,47.7,16.5,47.7z M4.9,30C3.8,30,3,30.8,3,31.9v11.9c0,1.1,0.9,1.9,1.9,1.9h0.4l0,0.1c0.1,1,0.9,1.7,1.9,1.7h9.3 c1,0,1.8-0.8,1.9-1.7l0-0.1h0.1c1.1,0,1.9-0.9,1.9-1.9v-12c-0.1-1.1-1-1.9-2-1.9h-0.1v-1.3c0-1.1-0.9-1.9-1.9-1.9h-0.6l0.1-7.7 c0-0.6-0.5-1-1-1h-0.1c-0.6,0-1,0.5-1,1v7.7H9.2V19c0-0.6-0.5-1-1-1H8.1c-0.6,0-1,0.5-1,1v7.8l-0.1,0c-1,0.1-1.7,0.9-1.7,1.9V30 H4.9z M16.4,46.5H7.2c-0.6,0-1-0.4-1.1-0.9l0-0.1h3.7c1.1,0,1.2-1,1.2-1.9V31.7c0-1.1-0.9-1.9-1.9-1.9H6v-1.3 c0-0.5,0.5-1.1,1.1-1.1h9.3c0.5,0,1.1,0.5,1.1,1.1v1.3h-3.4c-1.1,0-1.9,0.9-1.9,1.9v11.9c0,1.1,0.9,1.9,1.9,1.9h3.4l0,0.1 C17.4,46.1,16.9,46.5,16.4,46.5z M6.3,45.7c0.1,0.3,0.5,0.6,0.9,0.6h9.2c0.4,0,0.8-0.2,0.9-0.6h-3.2c-1.1,0-2.1-0.9-2.1-2.1V31.7 c0-1.1,0.9-2.1,2.1-2.1h3.2v-1.1c0-0.5-0.5-0.9-0.9-0.9H7.1c-0.5,0-0.9,0.5-0.9,0.9v1.1h2.9c1.1,0,2.1,0.9,2.1,2.1v11.9 c0,1-0.1,2.1-1.4,2.1H6.3z M9.1,44.8H4.9c-0.5,0-1.1-0.5-1.1-1.1V31.8c0-0.5,0.5-1.1,1.1-1.1h4.3c0.6,0,1,0.5,1,1.1v12.1 C10.1,44.4,9.6,44.8,9.1,44.8z M4.9,30.9c-0.5,0-0.9,0.5-0.9,0.9v11.9c0,0.5,0.5,0.9,0.9,0.9h4.2c0.5,0,0.8-0.3,0.9-0.7l0-0.2 V31.8c0-0.5-0.3-0.9-0.8-0.9H4.9z M18.4,44.7h-4.3c-0.5,0-1.1-0.5-1.1-1.1V31.8c0-0.5,0.5-1.1,1.1-1.1h4.3c0.5,0,1.1,0.5,1.1,1.1 v12C19.4,44.3,18.9,44.7,18.4,44.7z M14.1,30.9c-0.5,0-0.9,0.5-0.9,0.9v11.8c0,0.5,0.5,0.9,0.9,0.9h4.3c0.5,0,0.8-0.3,0.9-0.7 l0-0.2V31.8c0-0.5-0.5-0.9-0.9-0.9H14.1z M15,26.7h-0.5V19c0-0.1,0.1-0.2,0.2-0.2h0.1c0.1,0,0.2,0.1,0.2,0.2V26.7z M14.7,26.5h0.1 V19c0,0,0,0,0,0h-0.1c0,0,0,0,0,0V26.5z M8.4,26.7H7.9V19c0-0.1,0.1-0.2,0.2-0.2h0.1c0.1,0,0.2,0.1,0.2,0.2V26.7z M8.1,26.5h0.1 V19c0,0,0,0,0,0H8.1c0,0,0,0,0,0V26.5z"></path>
  <path d="M57.2,30.7L39.3,20.4c-1.1-0.6-2.6-0.3-3.2,0.9l-3.4,5.9c-0.6,1.1-0.3,2.6,0.9,3.2l6,3.5l-0.9,1.5 C38.5,35.8,38,36,37.6,36H34v-2.6c0-0.3-0.2-0.5-0.5-0.5h-2.1v-0.4c0-1.1-0.9-1.9-1.9-1.9h-1.2c-0.3,0-0.5,0.2-0.5,0.5v13.6 c0,0.3,0.2,0.5,0.5,0.5h1.2c1.1,0,1.9-0.9,1.9-1.9v-1.2h2.1c0.3,0,0.5-0.2,0.5-0.5v-1.8h3.5c1.8,0,3.5-1,4.4-2.5l0.9-1.5l3.2,1.9 c0.4,0.2,0.8,0.3,1.2,0.3c0.2,0,0.4,0,0.6-0.1c0.4-0.1,0.7-0.3,1-0.5c0.7,0.3,1.5,0.4,2.3,0.2c0.7-0.2,1.4-0.6,1.8-1.2l0.7,0.4 c0.1,0.1,0.3,0.1,0.4,0c0.1,0,0.2-0.1,0.3-0.2l3-5.1c0.1-0.1,0.1-0.2,0.1-0.4C57.4,30.9,57.3,30.8,57.2,30.7z M52,35.8 c-0.3,0.4-0.7,0.6-1.2,0.7c-0.4,0.1-0.9,0.1-1.4,0l0.9-1.6L52,35.8z M35.2,24.9l1.8-3.1c0.2-0.3,0.5-0.5,0.8-0.6s0.7,0,1,0.1 l17.4,10.1l-2.5,4.3L35.2,24.9z M49.5,34.4l-1.1,1.9c0,0,0,0.1-0.1,0.1c-0.4,0.5-1.1,0.7-1.7,0.3L34,29.5 c-0.3-0.2-0.5-0.5-0.6-0.8s0-0.7,0.1-1l1.1-1.9L49.5,34.4z M41.9,35.3L41,36.8l0,0c-0.7,1.2-2,2-3.5,2H34v-1.7h3.5 c0.8,0,1.6-0.4,2-1.2l0.9-1.5L41.9,35.3z M33,34v7.2h-1.5V34H33z M30.4,32.5v10.9c0,0.5-0.4,0.8-0.8,0.8h-0.7V31.7h0.7 C30,31.7,30.4,32.1,30.4,32.5z"></path>
  <path d="M29.5,45.3h-1.2c-0.3,0-0.6-0.2-0.6-0.6V31.1c0-0.3,0.2-0.6,0.6-0.6h1.2c1.1,0,2,0.9,2,2v0.3h2c0.3,0,0.6,0.2,0.6,0.6v2.5 h3.5c0.4,0,0.8-0.2,1-0.6l0.9-1.4l-5.9-3.5c-0.5-0.3-0.9-0.7-1.1-1.3c-0.2-0.6-0.1-1.4,0.2-2l3.4-5.9c0.3-0.5,0.7-0.9,1.3-1.1 c0.6-0.2,1.4-0.1,2,0.2l17.9,10.3l-0.1,0.1l0.1-0.1c0.1,0.1,0.2,0.2,0.2,0.5c0,0.2,0,0.3-0.1,0.4l-3,5.1c-0.1,0.1-0.2,0.2-0.3,0.2 c-0.1,0.1-0.4,0.1-0.5,0l-0.6-0.4c-0.5,0.7-1.3,1-1.8,1.2c-0.8,0.2-1.6,0.1-2.3-0.2c-0.3,0.2-0.6,0.4-1,0.5 c-0.2,0.1-0.4,0.1-0.6,0.1c-0.4,0-0.8-0.1-1.2-0.3l-3.1-1.9L42,37.3c-0.9,1.5-2.7,2.5-4.5,2.5h-3.4v1.7c0,0.3-0.2,0.6-0.6,0.6h-2 v1.1C31.5,44.4,30.6,45.3,29.5,45.3z M28.3,30.7c-0.3,0-0.4,0.2-0.4,0.4v13.6c0,0.3,0.2,0.4,0.4,0.4h1.2c1,0,1.8-0.8,1.8-1.8V42 h2.2c0.3,0,0.4-0.2,0.4-0.4v-1.9h3.6c1.7,0,3.4-1,4.3-2.5l0.9-1.6l3.3,1.9c0.4,0.2,0.8,0.3,1.2,0.3c0.2,0,0.4,0,0.6-0.1 c0.4-0.1,0.7-0.3,1-0.5l0,0l0,0c0.7,0.3,1.5,0.4,2.3,0.2c0.8-0.2,1.4-0.6,1.8-1.2l0-0.1l0.8,0.4c0.1,0.1,0.2,0.1,0.3,0l0,0h0 c0.1,0,0.2-0.1,0.2-0.2l3-5.1c0.1-0.1,0.1-0.1,0.1-0.3c0-0.2-0.1-0.2-0.2-0.3L39.3,20.5c-0.6-0.3-1.2-0.4-1.8-0.2 c-0.6,0.2-1,0.5-1.2,1.1l-3.4,5.9c-0.3,0.6-0.4,1.2-0.2,1.8c0.2,0.6,0.5,1,1.1,1.2l6.1,3.5l-0.9,1.6c-0.2,0.4-0.8,0.6-1.2,0.6 h-3.7v-2.7c0-0.3-0.2-0.4-0.4-0.4h-2.2v-0.5c0-1-0.8-1.8-1.8-1.8H28.3z M29.6,44.3h-0.8V31.6h0.8c0.4,0,0.9,0.4,0.9,0.9v10.9 C30.5,43.9,30,44.3,29.6,44.3z M29,44.1h0.6c0.4,0,0.7-0.3,0.7-0.7V32.5c0-0.4-0.4-0.7-0.7-0.7H29V44.1z M33.1,41.3h-1.7v-7.4h1.7 V41.3z M31.6,41.1h1.3v-7h-1.3V41.1z M37.5,38.9h-3.6V37h3.6c0.8,0,1.6-0.4,1.9-1.2l0.9-1.6l0.1,0l1.6,0.9l0,0.1l-0.9,1.5 C40.3,38.1,39,38.9,37.5,38.9z M34.1,38.7h3.4c1.4,0,2.7-0.7,3.4-2l0.9-1.4l-1.4-0.8l-0.9,1.4c-0.4,0.8-1.2,1.2-2.1,1.2h-3.4V38.7 z M47.3,37c-0.2,0-0.5-0.1-0.7-0.2L34,29.6c-0.3-0.2-0.5-0.5-0.6-0.8c-0.1-0.2-0.1-0.6,0.1-1l1.1-2l0.1,0l15,8.6l0,0.1l-1.1,1.9 c0,0.1,0,0.1-0.1,0.1C48.1,36.8,47.7,37,47.3,37z M34.6,25.9l-1.1,1.8c-0.1,0.4-0.2,0.7-0.1,0.9c0.1,0.3,0.3,0.6,0.6,0.8l12.6,7.2 c0.6,0.4,1.3,0.1,1.6-0.3l0,0h0c0,0,0,0,0,0l0,0l1.1-1.8L34.6,25.9z M50.1,36.7c-0.2,0-0.5,0-0.8-0.1l-0.1,0l1-1.8l1.8,1l-0.1,0.1 c-0.3,0.4-0.7,0.6-1.2,0.7C50.6,36.6,50.4,36.7,50.1,36.7z M49.5,36.4c0.5,0.1,0.9,0.1,1.3,0c0.5-0.1,0.8-0.3,1.1-0.6L50.3,35 L49.5,36.4z M53.7,35.8L53.7,35.8L35.1,24.9l0-0.1l1.8-3.1c0.2-0.3,0.5-0.5,0.8-0.6c0.3-0.1,0.6-0.1,1,0.1l17.5,10.1L53.7,35.8z M35.3,24.9l18.4,10.7l2.4-4.2L38.8,21.4c-0.4-0.1-0.7-0.2-0.9-0.1c-0.3,0.1-0.6,0.3-0.8,0.6L35.3,24.9z"></path>
  <path d="M54.5,31.8c-0.1-0.4-0.4-0.8-0.8-1c-0.4-0.2-0.8-0.3-1.3-0.2c-0.4,0.1-0.8,0.4-1,0.8s-0.3,0.8-0.2,1.3 c0.1,0.4,0.4,0.8,0.8,1l0,0c0.2,0.1,0.5,0.2,0.8,0.2c0.1,0,0.3,0,0.4-0.1C54.2,33.6,54.7,32.7,54.5,31.8z M53.4,32.2 c0,0.3-0.3,0.6-0.6,0.6s-0.6-0.3-0.6-0.6c0-0.1,0-0.2,0.1-0.3s0.2-0.2,0.4-0.3h0.1C53.2,31.6,53.4,31.9,53.4,32.2z"></path>
  <path d="M52.8,34c-0.4,0-0.7-0.1-0.8-0.2c-0.4-0.2-0.7-0.6-0.8-1c-0.1-0.5,0-0.9,0.2-1.4c0.2-0.4,0.6-0.7,1-0.8 c0.5-0.1,0.9,0,1.4,0.2c0.4,0.2,0.7,0.6,0.8,1v0c0.1,0.5,0,1-0.2,1.3c-0.2,0.4-0.6,0.6-1.1,0.7C53.1,34,52.9,34,52.8,34z M52.8,30.6c-0.1,0-0.2,0-0.4,0c-0.4,0.1-0.8,0.4-0.9,0.8c-0.2,0.4-0.3,0.8-0.2,1.3c0.1,0.4,0.4,0.8,0.8,0.9 c0.2,0.1,0.5,0.2,0.8,0.2c0.1,0,0.3,0,0.3-0.1l0,0l0,0c0.4-0.1,0.8-0.3,1-0.7c0.2-0.4,0.3-0.8,0.2-1.2c-0.1-0.4-0.4-0.8-0.8-1 C53.4,30.7,53.1,30.6,52.8,30.6z M52.8,32.9c-0.3,0-0.7-0.3-0.7-0.7c0-0.1,0-0.2,0.1-0.4c0.1-0.1,0.2-0.2,0.4-0.3l0,0h0.1 c0.4,0,0.7,0.3,0.7,0.7C53.5,32.5,53.1,32.9,52.8,32.9z M52.7,31.7c-0.2,0.1-0.3,0.2-0.4,0.3c-0.1,0.1-0.1,0.2-0.1,0.3 c0,0.3,0.3,0.5,0.5,0.5c0.3,0,0.5-0.3,0.5-0.5C53.3,31.9,53.2,31.7,52.7,31.7L52.7,31.7z"></path>
  <g>
    <path d="M34.5,27.7c-0.1,0.3,0,0.6,0.2,0.7l3.3,1.9c0.1,0,0.2,0.1,0.2,0.1c0.2,0,0.4-0.1,0.5-0.3c0.1-0.2,0-0.5-0.2-0.7l-3.3-1.9 c-0.1-0.1-0.3-0.1-0.4,0C34.6,27.5,34.5,27.6,34.5,27.7z"></path>
    <path d="M38.2,30.5L38.2,30.5L38.2,30.5c-0.1,0-0.1-0.1-0.2-0.1h0l0,0l-3.3-1.9c-0.2-0.1-0.3-0.5-0.2-0.8c0-0.1,0.1-0.3,0.3-0.3 c0.1-0.1,0.4-0.1,0.5,0l3.3,1.9c0.2,0.2,0.3,0.6,0.2,0.8C38.7,30.3,38.4,30.5,38.2,30.5z M38,30.2c0.1,0,0.2,0.1,0.2,0.1 c0.2,0,0.3-0.1,0.4-0.3c0.1-0.2,0-0.4-0.2-0.6l-3.3-1.9c-0.1-0.1-0.2-0.1-0.3,0l0,0h0c-0.1,0-0.2,0.1-0.2,0.1l0,0 c-0.1,0.3,0,0.5,0.2,0.6L38,30.2z"></path>
  </g>
  <g>
    <path d="M23.5,18.1c-0.3,0-0.5,0.2-0.5,0.5v28.2c0,0.3,0.2,0.5,0.5,0.5S24,47,24,46.8V18.6C24,18.3,23.8,18.1,23.5,18.1z"></path>
    <path d="M23.5,47.4c-0.3,0-0.6-0.2-0.6-0.6V18.6c0-0.3,0.2-0.6,0.6-0.6s0.6,0.2,0.6,0.6v28.2C24.1,47,23.9,47.4,23.5,47.4z M23.5,18.2c-0.3,0-0.4,0.2-0.4,0.4v28.2c0,0.3,0.2,0.4,0.4,0.4c0.2,0,0.4-0.3,0.4-0.4V18.6C23.9,18.3,23.8,18.2,23.5,18.2z"></path>
  </g>
</svg>