<svg xmlns="http://www.w3.org/2000/svg" id="woh519fha__y0d5q7lkt__图层_1" x="0" y="0" viewBox="0 0 60 60" class="woh519fha__design-iconfont" width="128" height="128">
  <style></style>
  <g id="woh519fha__y0d5q7lkt__Layer_x0020_1">
    <g id="woh519fha__y0d5q7lkt___2051186646416">
      <g id="woh519fha__y0d5q7lkt___197898272">
        <path d="M46.1,42.4H20.9c-0.3,0-0.5-0.2-0.5-0.5V10.8c0-0.3,0.2-0.5,0.5-0.5h24.2c0.8,0,1.4,0.6,1.4,1.4v30.2 C46.6,42.2,46.3,42.4,46.1,42.4z M21.4,41.4h24.2V11.8c0-0.3-0.2-0.5-0.5-0.5H21.4V41.4z" fill-rule="evenodd" clip-rule="evenodd"></path>
        <path d="M46.1,42.7H20.9c-0.4,0-0.8-0.4-0.8-0.8V10.8c0-0.4,0.4-0.8,0.8-0.8h24.2c1,0,1.8,0.8,1.8,1.8v30.2 C46.9,42.4,46.5,42.7,46.1,42.7z M20.9,10.7c-0.1,0-0.1,0.1-0.1,0.1v31.1c0,0.1,0.1,0.1,0.1,0.1h25.1c0.1,0,0.1-0.1,0.1-0.1 V11.8c0-0.6-0.5-1.1-1.1-1.1H20.9z M46,41.8H21.1V10.9h24.1c0.5,0,0.8,0.4,0.8,0.8V41.8z M21.7,41.1h23.5V11.8 c0-0.1-0.1-0.1-0.1-0.1H21.7V41.1z"></path>
      </g>
      <g id="woh519fha__y0d5q7lkt___197898344">
        <path d="M45.6,49.7h-28c-2.3,0-4.1-1.8-4.1-4.1c0-2.3,1.8-4.1,4.1-4.1h28.5c0.1,0,0.2,0,0.3,0.1 c0.1,0.1,0.1,0.2,0.1,0.3v6.8C46.6,49.2,46.1,49.7,45.6,49.7L45.6,49.7z M17.6,42.4c-1.8,0-3.2,1.4-3.2,3.2s1.4,3.2,3.2,3.2h28 c0,0,0.1,0,0.1-0.1v-6.3H17.6z" fill-rule="evenodd" clip-rule="evenodd"></path>
        <path d="M45.6,50h-28c-2.5,0-4.4-2-4.4-4.4c0-2.5,2-4.4,4.4-4.4h28.5c0.2,0,0.4,0.1,0.6,0.2c0.2,0.2,0.2,0.4,0.2,0.6v6.8 C46.9,49.4,46.3,50,45.6,50z M17.6,41.8c-2.1,0-3.8,1.7-3.8,3.8c0,2.1,1.7,3.8,3.8,3.8h28c0.4,0,0.6-0.3,0.6-0.6v-6.8 c0,0,0-0.1,0-0.1c0,0-0.1,0-0.1,0H17.6z M45.6,49.1h-28c-1.9,0-3.5-1.6-3.5-3.5c0-1.9,1.6-3.5,3.5-3.5H46v6.6 C46,48.9,45.8,49.1,45.6,49.1z M17.6,42.7c-1.6,0-2.8,1.3-2.8,2.8c0,1.6,1.3,2.8,2.8,2.8h27.7v-5.7H17.6z"></path>
      </g>
      <g id="woh519fha__y0d5q7lkt___197898848">
        <path d="M13.9,46.1c-0.3,0-0.5-0.2-0.5-0.5V14.3c0-2.2,1.8-4,4-4h3.5c0.3,0,0.5,0.2,0.5,0.5v31.1 c0,0.3-0.2,0.5-0.5,0.5c-0.3,0-0.5-0.2-0.5-0.5V11.3h-3.1c-1.7,0-3.1,1.4-3.1,3.1v31.3C14.4,45.9,14.2,46.1,13.9,46.1z" fill-rule="evenodd" clip-rule="evenodd"></path>
        <path d="M13.9,46.5c-0.4,0-0.8-0.4-0.8-0.8V14.3c0-2.4,1.9-4.3,4.3-4.3h3.5c0.4,0,0.8,0.4,0.8,0.8v31.1c0,0.4-0.4,0.8-0.8,0.8 c-0.4,0-0.8-0.4-0.8-0.8V11.6h-2.7c-1.5,0-2.7,1.2-2.7,2.7v31.3C14.7,46.1,14.4,46.5,13.9,46.5z M17.4,10.7 c-2,0-3.6,1.6-3.6,3.6v31.3c0,0.1,0.1,0.1,0.1,0.1c0.1,0,0.1-0.1,0.1-0.1V14.3c0-1.9,1.5-3.4,3.4-3.4h3.4v31 c0,0.1,0.1,0.1,0.1,0.1c0.1,0,0.1-0.1,0.1-0.1V10.8c0-0.1-0.1-0.1-0.1-0.1H17.4z"></path>
      </g>
      <g id="woh519fha__y0d5q7lkt___197899160">
        <path d="M42,46H18c-0.3,0-0.5-0.2-0.5-0.5c0-0.3,0.2-0.5,0.5-0.5H42c0.3,0,0.5,0.2,0.5,0.5 C42.5,45.8,42.3,46,42,46z" fill-rule="evenodd" clip-rule="evenodd"></path>
        <path d="M42,46.4H18c-0.4,0-0.8-0.4-0.8-0.8s0.4-0.8,0.8-0.8H42c0.4,0,0.8,0.4,0.8,0.8S42.5,46.4,42,46.4z M18,45.4 c-0.1,0-0.1,0.1-0.1,0.1c0,0.1,0.1,0.1,0.1,0.1H42c0.1,0,0.1-0.1,0.1-0.1c0-0.1-0.1-0.1-0.1-0.1H18z"></path>
      </g>
      <g id="woh519fha__y0d5q7lkt___197899208">
        <path d="M36.7,27.6c-1.4,0-2.7-0.4-3.8-1.2c-3.1-2.1-4-6.4-1.9-9.5c1.3-1.9,3.4-3,5.7-3c1.4,0,2.7,0.4,3.8,1.2 c1.5,1,2.6,2.6,2.9,4.4c0.4,1.8,0,3.6-1,5.1C41.1,26.5,39,27.6,36.7,27.6L36.7,27.6z M36.7,14.8c-2,0-3.8,1-4.9,2.6 c-1.8,2.7-1.1,6.4,1.6,8.2c1,0.7,2.1,1,3.3,1c2,0,3.8-1,4.9-2.6c1.8-2.7,1.1-6.4-1.6-8.2C39.1,15.1,37.9,14.8,36.7,14.8 L36.7,14.8z" fill-rule="evenodd" clip-rule="evenodd"></path>
        <path d="M36.7,27.9c-1.4,0-2.8-0.4-4-1.2c-1.6-1.1-2.7-2.7-3-4.6c-0.4-1.9,0-3.8,1.1-5.4c1.3-2,3.6-3.2,6-3.2 c1.4,0,2.8,0.4,4,1.2c1.6,1.1,2.7,2.7,3.1,4.6c0.4,1.9,0,3.8-1.1,5.4C41.4,26.7,39.1,27.9,36.7,27.9z M36.7,14.2 c-2.2,0-4.2,1.1-5.4,2.9c-1,1.4-1.3,3.2-1,4.9c0.3,1.7,1.3,3.2,2.8,4.2c1.1,0.7,2.3,1.1,3.6,1.1c2.2,0,4.2-1.1,5.4-2.9 c1-1.4,1.3-3.2,1-4.9c-0.3-1.7-1.3-3.2-2.8-4.2C39.3,14.6,38,14.2,36.7,14.2z M36.7,27c-1.3,0-2.5-0.4-3.5-1.1 c-1.4-0.9-2.3-2.4-2.7-4c-0.3-1.7,0-3.3,1-4.7c1.2-1.7,3.1-2.8,5.2-2.8c1.3,0,2.5,0.4,3.5,1.1c1.4,0.9,2.3,2.4,2.7,4 c0.3,1.7,0,3.3-1,4.7C40.8,26,38.8,27,36.7,27z M36.7,15.1c-1.9,0-3.6,0.9-4.7,2.5c-0.8,1.2-1.1,2.7-0.8,4.2 c0.3,1.5,1.1,2.7,2.4,3.6c0.9,0.6,2,1,3.1,1c1.9,0,3.6-0.9,4.7-2.5c0.8-1.2,1.1-2.7,0.8-4.2c-0.3-1.5-1.1-2.7-2.4-3.6 C38.9,15.5,37.8,15.1,36.7,15.1z"></path>
      </g>
      <g id="woh519fha__y0d5q7lkt___197899832">
        <path d="M31.9,30.9c-0.1,0-0.2,0-0.3-0.1l-2.4-1.6c-0.1-0.1-0.2-0.2-0.2-0.3c0-0.1,0-0.2,0.1-0.3l2.5-3.7 c0.1-0.2,0.4-0.3,0.6-0.1c0.2,0.1,0.3,0.4,0.1,0.6l-2.2,3.3l1.6,1.1l2.2-3.3c0.1-0.2,0.4-0.3,0.6-0.1c0.2,0.1,0.3,0.4,0.1,0.6 l-2.5,3.7C32.2,30.8,32.1,30.9,31.9,30.9L31.9,30.9z" fill-rule="evenodd" clip-rule="evenodd"></path>
        <path d="M31.9,31.2c-0.2,0-0.3,0-0.4-0.1l-2.4-1.6c-0.2-0.1-0.3-0.3-0.3-0.5c0-0.2,0-0.4,0.1-0.6l2.5-3.7 c0.1-0.2,0.3-0.3,0.5-0.3c0.2,0,0.4,0,0.6,0.1c0.4,0.2,0.5,0.8,0.2,1.1l-2.1,3.1l1,0.7l2.1-3.1c0.2-0.4,0.8-0.5,1.1-0.2 c0.4,0.2,0.5,0.8,0.2,1.1l-2.5,3.7C32.4,31.1,32.2,31.2,31.9,31.2z M32.1,25C32,25,32,25,32.1,25C32,25,32,25,32.1,25l-2.6,3.8 c0,0,0,0.1,0,0.1c0,0,0,0.1,0,0.1l2.4,1.6c0.1,0,0.1,0,0.2,0l2.5-3.7c0-0.1,0-0.1,0-0.2c-0.1,0-0.1,0-0.2,0l-2.4,3.6l-2.2-1.5 l2.4-3.6C32.2,25.1,32.2,25.1,32.1,25C32.1,25,32.1,25,32.1,25z"></path>
      </g>
      <g id="woh519fha__y0d5q7lkt___197899928">
        <path d="M27.2,38.9c-0.2,0-0.5-0.1-0.7-0.2L24,36.9c-0.5-0.4-0.7-1.1-0.3-1.7l4.4-6.6c0.2-0.3,0.6-0.5,1-0.5 c0.2,0,0.5,0.1,0.7,0.2l2.6,1.7c0.3,0.2,0.4,0.4,0.5,0.8c0.1,0.3,0,0.6-0.2,0.9l-4.4,6.6C28,38.7,27.6,38.9,27.2,38.9 L27.2,38.9z M29,29.1c-0.1,0-0.2,0-0.2,0.1l-4.4,6.6c-0.1,0.1,0,0.3,0.1,0.4l2.6,1.7c0.1,0,0.1,0,0.1,0c0.1,0,0.2,0,0.2-0.1 l4.4-6.6c0-0.1,0.1-0.1,0-0.2s-0.1-0.1-0.1-0.2l-2.6-1.7C29.1,29.1,29.1,29.1,29,29.1L29,29.1z" fill-rule="evenodd" clip-rule="evenodd"></path>
        <path d="M27.2,39.2c-0.3,0-0.6-0.1-0.9-0.3l-2.6-1.7c-0.3-0.2-0.6-0.6-0.6-1c-0.1-0.4,0-0.8,0.2-1.2l4.4-6.6 c0.3-0.4,0.8-0.7,1.3-0.7c0.3,0,0.6,0.1,0.9,0.3l2.6,1.7c0.3,0.2,0.6,0.6,0.6,1c0.1,0.4,0,0.8-0.2,1.2l-4.4,6.6 C28.2,38.9,27.7,39.2,27.2,39.2z M29,28.5c-0.3,0-0.5,0.1-0.7,0.4l-4.4,6.6c-0.1,0.2-0.2,0.4-0.1,0.6c0,0.2,0.2,0.4,0.4,0.5 l2.6,1.7c0.1,0.1,0.3,0.1,0.5,0.1c0.3,0,0.5-0.1,0.7-0.4l4.4-6.6c0.1-0.2,0.2-0.4,0.1-0.6c0-0.2-0.2-0.4-0.4-0.5l-2.6-1.7 C29.4,28.6,29.2,28.5,29,28.5z M27.2,38.3c-0.1,0-0.2,0-0.3-0.1l-2.6-1.7c-0.3-0.2-0.4-0.6-0.2-0.9l4.4-6.6 c0.1-0.2,0.3-0.3,0.5-0.3c0.1,0,0.2,0,0.3,0.1l2.6,1.7c0.1,0.1,0.2,0.2,0.3,0.4c0,0.2,0,0.3-0.1,0.5L27.7,38 C27.6,38.2,27.4,38.3,27.2,38.3z M24.7,35.9l2.4,1.6l4.3-6.4l-2.4-1.6L24.7,35.9z M29,29.4C29,29.4,29,29.4,29,29.4L29,29.4z M29.1,29.4L29.1,29.4C29.1,29.4,29.1,29.4,29.1,29.4z"></path>
      </g>
      <g id="woh519fha__y0d5q7lkt___197899184">
        <path d="M36.7,24.9c-0.8,0-1.7-0.2-2.4-0.7c-1.9-1.3-2.4-3.9-1.1-5.9c0.8-1.2,2.1-1.9,3.5-1.9 c0.8,0,1.7,0.2,2.4,0.7c0.9,0.6,1.6,1.6,1.8,2.7s0,2.2-0.6,3.2C39.4,24.2,38.1,24.9,36.7,24.9L36.7,24.9z M36.7,17.4 c-1.1,0-2.1,0.5-2.7,1.5c-1,1.5-0.6,3.6,0.9,4.6c0.5,0.4,1.2,0.6,1.8,0.6c1.1,0,2.1-0.5,2.7-1.5c0.5-0.7,0.7-1.6,0.5-2.5 c-0.2-0.9-0.7-1.6-1.4-2.1C38,17.6,37.4,17.4,36.7,17.4L36.7,17.4z" fill-rule="evenodd" clip-rule="evenodd"></path>
        <path d="M36.7,25.3c-0.9,0-1.8-0.3-2.5-0.8c-2.1-1.4-2.6-4.2-1.2-6.3c0.8-1.3,2.3-2,3.8-2c0.9,0,1.8,0.3,2.5,0.8 c1,0.7,1.7,1.7,1.9,2.9c0.2,1.2,0,2.4-0.7,3.4C39.7,24.5,38.2,25.3,36.7,25.3z M36.7,16.9c-1.3,0-2.5,0.6-3.2,1.7 c-1.2,1.8-0.7,4.2,1.1,5.4c0.6,0.4,1.4,0.7,2.2,0.7c1.3,0,2.5-0.6,3.2-1.7c0.6-0.9,0.8-1.9,0.6-2.9c-0.2-1-0.8-1.9-1.6-2.5 C38.2,17.1,37.5,16.9,36.7,16.9z M36.7,24.4c-0.7,0-1.4-0.2-2-0.6c-1.7-1.1-2.1-3.4-1-5.1c0.7-1,1.8-1.6,3-1.6 c0.7,0,1.4,0.2,2,0.6c0.8,0.5,1.4,1.4,1.5,2.3c0.2,1,0,1.9-0.6,2.7C39.1,23.8,37.9,24.4,36.7,24.4z M36.7,17.8 c-1,0-1.9,0.5-2.5,1.3c-0.9,1.3-0.5,3.2,0.8,4.1c0.5,0.3,1.1,0.5,1.6,0.5c1,0,1.9-0.5,2.5-1.3c0.4-0.7,0.6-1.4,0.4-2.2 c-0.2-0.8-0.6-1.4-1.2-1.9C37.9,17.9,37.3,17.8,36.7,17.8z"></path>
      </g>
    </g>
  </g>
</svg>