<svg xmlns="http://www.w3.org/2000/svg" id="cr7to9tbg__7nkyw3o1l__图层_1" x="0" y="0" viewBox="0 0 60 60" class="cr7to9tbg__design-iconfont" width="128" height="128">
  <style></style>
  <path d="M20.6,37.6c-0.3,0-0.6,0.3-0.6,0.6s0.3,0.6,0.6,0.6h18.8c0.3,0,0.6-0.3,0.6-0.6s-0.3-0.6-0.6-0.6h-1.9v-0.8 c0.7-0.2,1.3-0.9,1.3-1.7c0-0.9-1.1-2-1.4-2.3c-0.2-0.2-0.6-0.2-0.8,0C36.1,33,35,34.2,35,35c0,0.8,0.5,1.5,1.3,1.7v0.8h-2v-7.8 c0-0.3-0.3-0.6-0.6-0.6s-0.6,0.3-0.6,0.6v7.8h-6.3V23.7h6.3V27c0,0.3,0.3,0.6,0.6,0.6s0.6-0.3,0.6-0.6v-3.8c0-0.3-0.3-0.6-0.6-0.6 h-7.5c-0.3,0-0.6,0.3-0.6,0.6v14.4h-2v-0.8c0.7-0.2,1.3-0.9,1.3-1.7c0-0.9-1.1-2-1.4-2.3c-0.2-0.2-0.6-0.2-0.8,0 c-0.3,0.3-1.4,1.4-1.4,2.3c0,0.8,0.5,1.5,1.3,1.7v0.8H20.6z M36.9,34c0.4,0.4,0.7,0.9,0.7,1c0,0.4-0.3,0.7-0.7,0.7 s-0.7-0.3-0.7-0.7C36.2,34.9,36.5,34.4,36.9,34z M23.1,34c0.4,0.4,0.7,0.9,0.7,1c0,0.4-0.3,0.7-0.7,0.7s-0.7-0.3-0.7-0.7 C22.4,34.9,22.7,34.4,23.1,34z"></path>
  <path d="M39.4,38.9H20.6c-0.4,0-0.7-0.3-0.7-0.7s0.3-0.7,0.7-0.7h1.8v-0.6c-0.8-0.3-1.3-1-1.3-1.8c0-0.9,1.1-2.1,1.5-2.4 c0.3-0.3,0.7-0.3,1,0c0.3,0.3,1.5,1.5,1.5,2.4c0,0.8-0.5,1.5-1.3,1.8v0.6h1.7V23.1c0-0.4,0.3-0.7,0.7-0.7h7.5 c0.4,0,0.7,0.3,0.7,0.7V27c0,0.4-0.3,0.7-0.7,0.7S33,27.4,33,27v-3.1H27v13.6H33v-7.7c0-0.4,0.3-0.7,0.7-0.7s0.7,0.3,0.7,0.7v7.7 h1.7v-0.6c-0.8-0.3-1.3-1-1.3-1.8c0-0.9,1-2,1.5-2.4c0.3-0.3,0.7-0.3,1,0c0.3,0.3,1.5,1.5,1.5,2.4c0,0.8-0.5,1.5-1.3,1.8v0.6h1.8 c0.4,0,0.7,0.3,0.7,0.7S39.8,38.9,39.4,38.9z M20.6,37.7c-0.3,0-0.5,0.2-0.5,0.5s0.2,0.5,0.5,0.5h18.8c0.3,0,0.5-0.2,0.5-0.5 s-0.2-0.5-0.5-0.5h-2v-1l0.1,0c0.7-0.2,1.2-0.9,1.2-1.6c0-0.7-0.7-1.6-1.4-2.2c-0.2-0.2-0.5-0.2-0.6,0c-0.3,0.3-1.4,1.4-1.4,2.2 c0,0.7,0.5,1.4,1.2,1.6l0.1,0v1h-2.2v-8c0-0.3-0.2-0.5-0.5-0.5s-0.5,0.2-0.5,0.5v8h-6.6V23.6h6.6V27c0,0.3,0.2,0.5,0.5,0.5 s0.5-0.2,0.5-0.5v-3.8c0-0.3-0.2-0.5-0.5-0.5h-7.5c-0.3,0-0.5,0.2-0.5,0.5v14.6h-2.2v-1l0.1,0c0.7-0.2,1.2-0.9,1.2-1.6 c0-0.7-0.7-1.6-1.4-2.2c-0.2-0.2-0.5-0.2-0.6,0c-0.7,0.6-1.4,1.6-1.4,2.2c0,0.7,0.5,1.4,1.2,1.6l0.1,0v1H20.6z M36.9,35.8 c-0.4,0-0.8-0.4-0.8-0.8c0-0.3,0.6-1,0.7-1.1l0.1-0.1l0.1,0.1c0.1,0.1,0.7,0.8,0.7,1.1C37.7,35.5,37.3,35.8,36.9,35.8z M36.9,34.2 c-0.4,0.4-0.5,0.8-0.5,0.8c0,0.3,0.2,0.5,0.5,0.5s0.5-0.2,0.5-0.5C37.4,34.9,37.3,34.6,36.9,34.2z M23.1,35.8 c-0.4,0-0.8-0.4-0.8-0.8c0-0.3,0.6-1,0.7-1.1l0.1-0.1l0.1,0.1c0.1,0.1,0.7,0.8,0.7,1.1C23.9,35.5,23.5,35.8,23.1,35.8z M23.1,34.2 c-0.4,0.4-0.5,0.8-0.5,0.8c0,0.3,0.2,0.5,0.5,0.5s0.5-0.2,0.5-0.5C23.7,34.9,23.5,34.6,23.1,34.2z"></path>
  <path d="M32.5,25.6c0-0.3-0.3-0.6-0.6-0.6s-0.6,0.3-0.6,0.6v0.6c0,0.3,0.3,0.6,0.6,0.6s0.6-0.3,0.6-0.6V25.6z"></path>
  <path d="M31.9,27c-0.4,0-0.7-0.3-0.7-0.7v-0.6c0-0.4,0.3-0.7,0.7-0.7s0.7,0.3,0.7,0.7v0.6C32.6,26.6,32.3,27,31.9,27z M31.9,25.2 c-0.3,0-0.5,0.2-0.5,0.5v0.6c0,0.3,0.2,0.5,0.5,0.5s0.5-0.2,0.5-0.5v-0.6C32.3,25.4,32.1,25.2,31.9,25.2z"></path>
  <path d="M30.6,25.6c0-0.3-0.3-0.6-0.6-0.6s-0.6,0.3-0.6,0.6v0.6c0,0.3,0.3,0.6,0.6,0.6s0.6-0.3,0.6-0.6V25.6z"></path>
  <path d="M30,27c-0.4,0-0.7-0.3-0.7-0.7v-0.6c0-0.4,0.3-0.7,0.7-0.7c0.4,0,0.7,0.3,0.7,0.7v0.6C30.7,26.6,30.4,27,30,27z M30,25.2 c-0.3,0-0.5,0.2-0.5,0.5v0.6c0,0.3,0.2,0.5,0.5,0.5s0.5-0.2,0.5-0.5v-0.6C30.5,25.4,30.3,25.2,30,25.2z"></path>
  <path d="M28.7,25.6c0-0.3-0.3-0.6-0.6-0.6s-0.6,0.3-0.6,0.6v0.6c0,0.3,0.3,0.6,0.6,0.6s0.6-0.3,0.6-0.6V25.6z"></path>
  <path d="M28.1,27c-0.4,0-0.7-0.3-0.7-0.7v-0.6c0-0.4,0.3-0.7,0.7-0.7c0.4,0,0.7,0.3,0.7,0.7v0.6C28.8,26.6,28.5,27,28.1,27z M28.1,25.2c-0.3,0-0.5,0.2-0.5,0.5v0.6c0,0.3,0.2,0.5,0.5,0.5s0.5-0.2,0.5-0.5v-0.6C28.6,25.4,28.4,25.2,28.1,25.2z"></path>
  <path d="M32.5,28.7c0-0.3-0.3-0.6-0.6-0.6s-0.6,0.3-0.6,0.6v0.6c0,0.3,0.3,0.6,0.6,0.6s0.6-0.3,0.6-0.6V28.7z"></path>
  <path d="M31.9,30.1c-0.4,0-0.7-0.3-0.7-0.7v-0.6c0-0.4,0.3-0.7,0.7-0.7s0.7,0.3,0.7,0.7v0.6C32.6,29.8,32.3,30.1,31.9,30.1z M31.9,28.3c-0.3,0-0.5,0.2-0.5,0.5v0.6c0,0.3,0.2,0.5,0.5,0.5s0.5-0.2,0.5-0.5v-0.6C32.3,28.5,32.1,28.3,31.9,28.3z"></path>
  <path d="M30.6,28.7c0-0.3-0.3-0.6-0.6-0.6s-0.6,0.3-0.6,0.6v0.6c0,0.3,0.3,0.6,0.6,0.6s0.6-0.3,0.6-0.6V28.7z"></path>
  <path d="M30,30.1c-0.4,0-0.7-0.3-0.7-0.7v-0.6c0-0.4,0.3-0.7,0.7-0.7c0.4,0,0.7,0.3,0.7,0.7v0.6C30.7,29.8,30.4,30.1,30,30.1z M30,28.3c-0.3,0-0.5,0.2-0.5,0.5v0.6c0,0.3,0.2,0.5,0.5,0.5s0.5-0.2,0.5-0.5v-0.6C30.5,28.5,30.3,28.3,30,28.3z"></path>
  <path d="M28.7,28.7c0-0.3-0.3-0.6-0.6-0.6s-0.6,0.3-0.6,0.6v0.6c0,0.3,0.3,0.6,0.6,0.6s0.6-0.3,0.6-0.6V28.7z"></path>
  <path d="M28.1,30.1c-0.4,0-0.7-0.3-0.7-0.7v-0.6c0-0.4,0.3-0.7,0.7-0.7c0.4,0,0.7,0.3,0.7,0.7v0.6C28.8,29.8,28.5,30.1,28.1,30.1z M28.1,28.3c-0.3,0-0.5,0.2-0.5,0.5v0.6c0,0.3,0.2,0.5,0.5,0.5s0.5-0.2,0.5-0.5v-0.6C28.6,28.5,28.4,28.3,28.1,28.3z"></path>
  <g>
    <path d="M32.5,31.9c0-0.3-0.3-0.6-0.6-0.6s-0.6,0.3-0.6,0.6v0.6c0,0.3,0.3,0.6,0.6,0.6s0.6-0.3,0.6-0.6V31.9z"></path>
    <path d="M31.9,33.2c-0.4,0-0.7-0.3-0.7-0.7v-0.6c0-0.4,0.3-0.7,0.7-0.7s0.7,0.3,0.7,0.7v0.6C32.6,32.9,32.3,33.2,31.9,33.2z M31.9,31.4c-0.3,0-0.5,0.2-0.5,0.5v0.6c0,0.3,0.2,0.5,0.5,0.5s0.5-0.2,0.5-0.5v-0.6C32.3,31.6,32.1,31.4,31.9,31.4z"></path>
  </g>
  <g>
    <path d="M30.6,31.9c0-0.3-0.3-0.6-0.6-0.6s-0.6,0.3-0.6,0.6v0.6c0,0.3,0.3,0.6,0.6,0.6s0.6-0.3,0.6-0.6V31.9z"></path>
    <path d="M30,33.2c-0.4,0-0.7-0.3-0.7-0.7v-0.6c0-0.4,0.3-0.7,0.7-0.7c0.4,0,0.7,0.3,0.7,0.7v0.6C30.7,32.9,30.4,33.2,30,33.2z M30,31.4c-0.3,0-0.5,0.2-0.5,0.5v0.6c0,0.3,0.2,0.5,0.5,0.5s0.5-0.2,0.5-0.5v-0.6C30.5,31.6,30.3,31.4,30,31.4z"></path>
  </g>
  <g>
    <path d="M28.7,31.9c0-0.3-0.3-0.6-0.6-0.6s-0.6,0.3-0.6,0.6v0.6c0,0.3,0.3,0.6,0.6,0.6s0.6-0.3,0.6-0.6V31.9z"></path>
    <path d="M28.1,33.2c-0.4,0-0.7-0.3-0.7-0.7v-0.6c0-0.4,0.3-0.7,0.7-0.7c0.4,0,0.7,0.3,0.7,0.7v0.6C28.8,32.9,28.5,33.2,28.1,33.2z M28.1,31.4c-0.3,0-0.5,0.2-0.5,0.5v0.6c0,0.3,0.2,0.5,0.5,0.5s0.5-0.2,0.5-0.5v-0.6C28.6,31.6,28.4,31.4,28.1,31.4z"></path>
  </g>
  <g>
    <path d="M31.9,34.4c-0.3,0-0.6,0.3-0.6,0.6v0.6c0,0.3,0.3,0.6,0.6,0.6s0.6-0.3,0.6-0.6V35C32.5,34.7,32.2,34.4,31.9,34.4z"></path>
    <path d="M31.9,36.3c-0.4,0-0.7-0.3-0.7-0.7V35c0-0.4,0.3-0.7,0.7-0.7s0.7,0.3,0.7,0.7v0.6C32.6,36,32.3,36.3,31.9,36.3z M31.9,34.5c-0.3,0-0.5,0.2-0.5,0.5v0.6c0,0.3,0.2,0.5,0.5,0.5s0.5-0.2,0.5-0.5V35C32.3,34.8,32.1,34.5,31.9,34.5z"></path>
  </g>
  <g>
    <path d="M30,34.4c-0.3,0-0.6,0.3-0.6,0.6v0.6c0,0.3,0.3,0.6,0.6,0.6s0.6-0.3,0.6-0.6V35C30.6,34.7,30.3,34.4,30,34.4z"></path>
    <path d="M30,36.3c-0.4,0-0.7-0.3-0.7-0.7V35c0-0.4,0.3-0.7,0.7-0.7c0.4,0,0.7,0.3,0.7,0.7v0.6C30.7,36,30.4,36.3,30,36.3z M30,34.5c-0.3,0-0.5,0.2-0.5,0.5v0.6c0,0.3,0.2,0.5,0.5,0.5s0.5-0.2,0.5-0.5V35C30.5,34.8,30.3,34.5,30,34.5z"></path>
  </g>
  <g>
    <path d="M28.1,34.4c-0.3,0-0.6,0.3-0.6,0.6v0.6c0,0.3,0.3,0.6,0.6,0.6s0.6-0.3,0.6-0.6V35C28.7,34.7,28.4,34.4,28.1,34.4z"></path>
    <path d="M28.1,36.3c-0.4,0-0.7-0.3-0.7-0.7V35c0-0.4,0.3-0.7,0.7-0.7c0.4,0,0.7,0.3,0.7,0.7v0.6C28.8,36,28.5,36.3,28.1,36.3z M28.1,34.5c-0.3,0-0.5,0.2-0.5,0.5v0.6c0,0.3,0.2,0.5,0.5,0.5s0.5-0.2,0.5-0.5V35C28.6,34.8,28.4,34.5,28.1,34.5z"></path>
  </g>
  <g>
    <path d="M48.2,46.3c-0.8,0-1.5,0.5-1.7,1.3h-5.8v-3.8h0c5.2,0,9.4-4.2,9.4-9.4c0-3.6-2-6.7-5-8.3V23c0.7-0.2,1.3-0.9,1.3-1.7 c0-1-0.8-1.8-1.8-1.8s-1.8,0.8-1.8,1.8c0,0.8,0.5,1.5,1.3,1.7v2.6c-1-0.4-2.1-0.6-3.2-0.6c-0.5,0-0.9,0-1.4,0.1 c0.1-0.5,0.1-0.9,0.1-1.4c0-2.1-0.7-4.1-1.9-5.7h10.1c0.3,0,0.6-0.3,0.6-0.6v-3.9c0.7-0.2,1.3-0.9,1.3-1.7c0-1-0.8-1.8-1.8-1.8 s-1.8,0.8-1.8,1.8c0,0.8,0.5,1.5,1.3,1.7v3.3H36.4c-1.5-1.4-3.6-2.3-5.8-2.5v-2.6c0-0.3-0.3-0.6-0.6-0.6h-4.5 c-0.2-0.7-0.9-1.3-1.7-1.3c-1,0-1.8,0.8-1.8,1.8s0.8,1.8,1.8,1.8c0.8,0,1.5-0.5,1.7-1.3h3.9v2c-2.2,0.1-4.2,1-5.8,2.5 c-1.6,1.5-2.6,3.5-2.9,5.6c0,0-0.1,0-0.1,0c-0.9,0-1.7,0.1-2.5,0.3V15c0-0.3-0.3-0.6-0.6-0.6h-3.3c-0.2-0.7-0.9-1.3-1.7-1.3 c-1,0-1.8,0.8-1.8,1.8s0.8,1.8,1.8,1.8c0.8,0,1.5-0.5,1.7-1.3h2.7v7.6c-4,1.5-6.9,5.4-6.9,9.9c0,4.1,2.3,7.7,5.8,9.4h-3.9 c-0.3,0-0.6,0.3-0.6,0.6v2c-0.7,0.2-1.3,0.9-1.3,1.7c0,1,0.8,1.8,1.8,1.8s1.8-0.8,1.8-1.8c0-0.8-0.5-1.5-1.3-1.7v-1.4H25v3.8h-2.7 c-0.2-0.7-0.9-1.3-1.7-1.3c-1,0-1.8,0.8-1.8,1.8s0.8,1.8,1.8,1.8c0.8,0,1.5-0.5,1.7-1.3h3.3c0.3,0,0.6-0.3,0.6-0.6v-4.4h8.6 c0.3,0,0.6-0.3,0.6-0.6s-0.3-0.6-0.6-0.6H20.6c-5.2,0-9.4-4.2-9.4-9.4s4.2-9.4,9.4-9.4c0.2,0,0.4,0,0.6,0c0.3,0,0.6-0.2,0.6-0.5 c0.3-4.3,3.9-7.6,8.2-7.6c4.5,0,8.2,3.7,8.2,8.2c0,0.7-0.1,1.3-0.2,2c-0.1,0.4,0.3,0.8,0.7,0.7c0.7-0.2,1.3-0.2,2-0.2 c4.5,0,8.2,3.7,8.2,8.2s-3.7,8.2-8.2,8.2h-3.1c-0.3,0-0.6,0.3-0.6,0.6s0.3,0.6,0.6,0.6h1.9v4.4c0,0.3,0.3,0.6,0.6,0.6h6.4 c0.2,0.7,0.9,1.3,1.7,1.3c1,0,1.8-0.8,1.8-1.8S49.2,46.3,48.2,46.3z M44.4,20.6c0.4,0,0.7,0.3,0.7,0.7s-0.3,0.7-0.7,0.7 s-0.7-0.3-0.7-0.7S44,20.6,44.4,20.6z M47.5,11.2c0.4,0,0.7,0.3,0.7,0.7s-0.3,0.7-0.7,0.7s-0.7-0.3-0.7-0.7S47.2,11.2,47.5,11.2z M23.7,12.5c-0.4,0-0.7-0.3-0.7-0.7s0.3-0.7,0.7-0.7s0.7,0.3,0.7,0.7S24.1,12.5,23.7,12.5z M12.5,15.6c-0.4,0-0.7-0.3-0.7-0.7 s0.3-0.7,0.7-0.7s0.7,0.3,0.7,0.7S12.8,15.6,12.5,15.6z M11.8,47.6c-0.4,0-0.7-0.3-0.7-0.7s0.3-0.7,0.7-0.7s0.7,0.3,0.7,0.7 S12.2,47.6,11.8,47.6z M20.6,48.8c-0.4,0-0.7-0.3-0.7-0.7s0.3-0.7,0.7-0.7s0.7,0.3,0.7,0.7S21,48.8,20.6,48.8z M48.2,48.8 c-0.4,0-0.7-0.3-0.7-0.7s0.3-0.7,0.7-0.7s0.7,0.3,0.7,0.7S48.5,48.8,48.2,48.8z"></path>
    <path d="M48.2,50.1c-0.8,0-1.5-0.5-1.8-1.3H40c-0.4,0-0.7-0.3-0.7-0.7v-4.3h-1.7c-0.4,0-0.7-0.3-0.7-0.7s0.3-0.7,0.7-0.7h3.1 c4.4,0,8.1-3.6,8.1-8.1s-3.6-8.1-8.1-8.1c-0.7,0-1.3,0.1-2,0.2c-0.2,0.1-0.5,0-0.7-0.2c-0.2-0.2-0.3-0.4-0.2-0.7 c0.2-0.6,0.2-1.3,0.2-2c0-4.4-3.6-8.1-8.1-8.1c-4.2,0-7.7,3.3-8,7.5c0,0.4-0.3,0.7-0.7,0.7c0,0,0,0,0,0c-0.2,0-0.4,0-0.6,0 c-5.1,0-9.3,4.2-9.3,9.3c0,5.1,4.2,9.3,9.3,9.3h14.2c0.4,0,0.7,0.3,0.7,0.7s-0.3,0.7-0.7,0.7h-8.5v4.3c0,0.4-0.3,0.7-0.7,0.7h-3.2 c-0.3,0.8-1,1.3-1.8,1.3c-1.1,0-2-0.9-2-2c0-1.1,0.9-2,2-2c0.8,0,1.5,0.5,1.8,1.3h2.5v-3.6H12.6v1.2c0.8,0.3,1.3,1,1.3,1.8 c0,1.1-0.9,2-2,2s-2-0.9-2-2c0-0.8,0.5-1.5,1.3-1.8v-1.9c0-0.4,0.3-0.7,0.7-0.7h3.4c-3.3-1.9-5.4-5.4-5.4-9.3 c0-4.4,2.8-8.4,6.9-10v-7.4h-2.5c-0.3,0.8-1,1.3-1.8,1.3c-1.1,0-2-0.9-2-2s0.9-2,2-2c0.8,0,1.5,0.5,1.8,1.3h3.2 c0.4,0,0.7,0.3,0.7,0.7v7.7c0.8-0.2,1.6-0.3,2.4-0.3h0c0.3-2.1,1.3-4.1,2.9-5.6c1.6-1.5,3.6-2.4,5.8-2.5v-1.7h-3.7 c-0.3,0.8-1,1.3-1.8,1.3c-1.1,0-2-0.9-2-2c0-1.1,0.9-2,2-2c0.8,0,1.5,0.5,1.8,1.3H30c0.4,0,0.7,0.3,0.7,0.7v2.4 c2.1,0.2,4.1,1,5.7,2.5h10.4v-3.1c-0.8-0.3-1.3-1-1.3-1.8c0-1.1,0.9-2,2-2s2,0.9,2,2c0,0.8-0.5,1.5-1.3,1.8v3.8 c0,0.4-0.3,0.7-0.7,0.7h-9.9c1.2,1.6,1.8,3.5,1.8,5.6c0,0.4,0,0.8-0.1,1.2c1.5-0.2,2.9,0,4.3,0.4v-2.3c-0.8-0.3-1.3-1-1.3-1.8 c0-1.1,0.9-2,2-2s2,0.9,2,2c0,0.8-0.5,1.5-1.3,1.8v3c3.1,1.7,5,4.9,5,8.4c0,5.2-4.2,9.4-9.4,9.5v3.6h5.6c0.3-0.8,1-1.3,1.8-1.3 c1.1,0,2,0.9,2,2C50.1,49.2,49.2,50.1,48.2,50.1z M37.6,42.7c-0.3,0-0.5,0.2-0.5,0.5s0.2,0.5,0.5,0.5h2v4.5c0,0.3,0.2,0.5,0.5,0.5 h6.5l0,0.1c0.2,0.7,0.9,1.2,1.6,1.2c0.9,0,1.7-0.8,1.7-1.7c0-0.9-0.8-1.7-1.7-1.7c-0.7,0-1.4,0.5-1.6,1.2l0,0.1h-6v-4.1h0.2 c5.1,0,9.2-4.1,9.2-9.2c0-3.4-1.9-6.6-4.9-8.2l-0.1,0v-3.3l0.1,0c0.7-0.2,1.2-0.9,1.2-1.6c0-0.9-0.8-1.7-1.7-1.7s-1.7,0.8-1.7,1.7 c0,0.7,0.5,1.4,1.2,1.6l0.1,0v2.9l-0.2-0.1c-1.4-0.5-3-0.7-4.5-0.4l-0.2,0l0-0.2c0.1-0.5,0.1-0.9,0.1-1.4c0-2-0.7-4-1.9-5.6 l-0.2-0.2h10.4c0.3,0,0.5-0.2,0.5-0.5v-4l0.1,0c0.7-0.2,1.2-0.9,1.2-1.6c0-0.9-0.8-1.7-1.7-1.7s-1.7,0.8-1.7,1.7 c0,0.7,0.5,1.4,1.2,1.6l0.1,0V17H36.3l0,0c-1.6-1.5-3.6-2.3-5.7-2.5l-0.1,0v-2.7c0-0.3-0.2-0.5-0.5-0.5h-4.6l0-0.1 c-0.2-0.7-0.9-1.2-1.6-1.2c-0.9,0-1.7,0.8-1.7,1.7c0,0.9,0.8,1.7,1.7,1.7c0.7,0,1.4-0.5,1.6-1.2l0-0.1h4.1v2.2l-0.1,0 c-2.1,0.1-4.2,1-5.7,2.5c-1.6,1.5-2.6,3.4-2.8,5.5l0,0.1l-0.2,0c-0.8,0-1.7,0.1-2.5,0.3l-0.2,0v-8c0-0.3-0.2-0.5-0.5-0.5h-3.4 l0-0.1c-0.2-0.7-0.9-1.2-1.6-1.2c-0.9,0-1.7,0.8-1.7,1.7s0.8,1.7,1.7,1.7c0.7,0,1.4-0.5,1.6-1.2l0-0.1H17v7.9l-0.1,0 c-4.1,1.5-6.8,5.5-6.8,9.8c0,3.9,2.2,7.5,5.7,9.3l0.5,0.2h-4.4c-0.3,0-0.5,0.2-0.5,0.5v2.1l-0.1,0c-0.7,0.2-1.2,0.9-1.2,1.6 c0,0.9,0.8,1.7,1.7,1.7s1.7-0.8,1.7-1.7c0-0.7-0.5-1.4-1.2-1.6l-0.1,0v-1.6h12.9v4.1h-2.9l0-0.1c-0.2-0.7-0.9-1.2-1.6-1.2 c-0.9,0-1.7,0.8-1.7,1.7c0,0.9,0.8,1.7,1.7,1.7c0.7,0,1.4-0.5,1.6-1.2l0-0.1h3.4c0.3,0,0.5-0.2,0.5-0.5v-4.5h8.7 c0.3,0,0.5-0.2,0.5-0.5s-0.2-0.5-0.5-0.5H20.6c-5.3,0-9.6-4.3-9.6-9.6s4.3-9.6,9.6-9.6c0.2,0,0.4,0,0.6,0c0.3,0,0.5-0.2,0.5-0.4 c0.3-4.3,3.9-7.7,8.3-7.7c4.6,0,8.3,3.7,8.3,8.3c0,0.7-0.1,1.4-0.3,2c0,0.2,0,0.3,0.1,0.4c0.1,0.1,0.3,0.2,0.4,0.1 c0.7-0.2,1.3-0.3,2-0.3c4.6,0,8.3,3.7,8.3,8.3c0,4.6-3.7,8.3-8.3,8.3H37.6z M48.2,49c-0.4,0-0.8-0.4-0.8-0.8 c0-0.4,0.4-0.8,0.8-0.8c0.4,0,0.8,0.4,0.8,0.8C49,48.6,48.6,49,48.2,49z M48.2,47.6c-0.3,0-0.5,0.2-0.5,0.5s0.2,0.5,0.5,0.5 s0.5-0.2,0.5-0.5S48.5,47.6,48.2,47.6z M20.6,49c-0.4,0-0.8-0.4-0.8-0.8c0-0.4,0.4-0.8,0.8-0.8c0.4,0,0.8,0.4,0.8,0.8 C21.4,48.6,21,49,20.6,49z M20.6,47.6c-0.3,0-0.5,0.2-0.5,0.5s0.2,0.5,0.5,0.5s0.5-0.2,0.5-0.5S20.9,47.6,20.6,47.6z M11.8,47.7 c-0.4,0-0.8-0.4-0.8-0.8c0-0.4,0.4-0.8,0.8-0.8s0.8,0.4,0.8,0.8C12.6,47.3,12.3,47.7,11.8,47.7z M11.8,46.4 c-0.3,0-0.5,0.2-0.5,0.5s0.2,0.5,0.5,0.5s0.5-0.2,0.5-0.5S12.1,46.4,11.8,46.4z M44.4,22c-0.4,0-0.8-0.4-0.8-0.8s0.4-0.8,0.8-0.8 s0.8,0.4,0.8,0.8S44.8,22,44.4,22z M44.4,20.7c-0.3,0-0.5,0.2-0.5,0.5s0.2,0.5,0.5,0.5s0.5-0.2,0.5-0.5S44.7,20.7,44.4,20.7z M12.5,15.8c-0.4,0-0.8-0.4-0.8-0.8s0.4-0.8,0.8-0.8c0.4,0,0.8,0.4,0.8,0.8S12.9,15.8,12.5,15.8z M12.5,14.4 c-0.3,0-0.5,0.2-0.5,0.5s0.2,0.5,0.5,0.5S13,15.3,13,15S12.8,14.4,12.5,14.4z M47.5,12.6c-0.4,0-0.8-0.4-0.8-0.8 c0-0.4,0.4-0.8,0.8-0.8c0.4,0,0.8,0.4,0.8,0.8C48.3,12.3,48,12.6,47.5,12.6z M47.5,11.3c-0.3,0-0.5,0.2-0.5,0.5s0.2,0.5,0.5,0.5 s0.5-0.2,0.5-0.5S47.8,11.3,47.5,11.3z M23.7,12.6c-0.4,0-0.8-0.4-0.8-0.8c0-0.4,0.4-0.8,0.8-0.8s0.8,0.4,0.8,0.8 C24.5,12.3,24.2,12.6,23.7,12.6z M23.7,11.3c-0.3,0-0.5,0.2-0.5,0.5s0.2,0.5,0.5,0.5s0.5-0.2,0.5-0.5S24,11.3,23.7,11.3z"></path>
  </g>
</svg>