<svg xmlns="http://www.w3.org/2000/svg" viewBox="0 0 60 60" class="jiisoavbi__design-iconfont" width="128" height="128">
  <path d="M49.2,21.9c-2.1-5-6.1-9-11.1-11.1c-5.2-2.2-11-2.2-16.2,0c-5,2.1-9,6.1-11.1,11.1c-2.2,5.2-2.2,11,0,16.2 c3.2,7.7,10.8,12.7,19.1,12.7c2.8,0,5.5-0.5,8.1-1.6c7.7-3.2,12.7-10.8,12.7-19.1C50.8,27.2,50.2,24.5,49.2,21.9L49.2,21.9z M17.1,28.7c0.2-0.6,0.5-1.2,0.8-1.8h0.2c0.8,0,1.5-0.3,2.1-0.9c0.5-0.5,0.9-1.3,0.9-2.1c0-0.4-0.1-0.8-0.3-1.2 c0.4-0.5,0.8-0.9,1.2-1.3c0.5-0.5,0.9-0.9,1.4-1.3c0.3,1.1,0.6,2.1,1.1,3.1c1.1,2.7,2.8,5.1,4.8,7.2c1.8,1.8,3.8,3.2,6.1,4.3 c-0.1,0.1-0.2,0.2-0.2,0.3c-1,1.1-2.1,2-3.3,2.9c-0.5-0.4-1.1-0.5-1.7-0.5c-1.1,0-2,0.6-2.5,1.5c-2.6-0.6-5.1-1.8-7.4-3.3 c-1.5-1-3-2.2-4.2-3.6C16.3,30.9,16.7,29.8,17.1,28.7L17.1,28.7z M36.8,36.7c0.3-0.3,0.6-0.6,0.8-0.9c1.9,0.7,3.8,1.1,5.8,1.2 c-3.1,1.6-6.5,2.5-9.9,2.5C34.7,38.7,35.8,37.7,36.8,36.7L36.8,36.7z M48.5,30c0,1.3-0.1,2.6-0.4,3.9c-0.3,0.3-0.6,0.5-0.9,0.8 c-0.6,0.1-1.2,0.1-1.8,0.1c-2.1,0-4.1-0.3-6.1-0.9c1.1-1.5,2.1-3,2.9-4.6h0.1c1.2,0,2.3-0.8,2.8-1.9c0.5-1.1,0.2-2.4-0.8-3.2 c0.5-1.5,0.8-2.9,1-4.4c0.7,1,1.3,2.1,1.7,3.2C48,25.1,48.5,27.5,48.5,30L48.5,30z M43.2,17.1c-0.2,2.1-0.6,4.2-1.2,6.2 c-1.1,0.1-2.1,0.8-2.5,1.8c-0.4,1-0.2,2.2,0.5,3.1c-0.9,1.7-1.9,3.3-3.1,4.8c-2.2-1-4.3-2.4-6-4.1c-1.8-1.8-3.3-4-4.3-6.5 c-0.5-1.2-0.9-2.5-1.2-3.7c1.2-0.8,2.5-1.5,3.8-2.1c2.8-1.2,5.8-1.8,8.9-1.8c0.8,0,1.7,0,2.5,0.1c0.8,0.6,1.7,1.3,2.4,2L43.2,17.1z M36,12.6c-2.6,0.2-5.2,0.8-7.6,1.9c-1.1,0.5-2.2,1-3.3,1.7c0-0.5-0.1-1.1-0.1-1.6c0-0.8,0-1.5,0.1-2.3c1.6-0.4,3.2-0.6,4.8-0.6 C32.1,11.6,34.1,11.9,36,12.6L36,12.6z M17,16.9c1.7-1.7,3.6-3,5.8-3.9c0,0.5,0,1,0,1.5c0,1.1,0.1,2.1,0.2,3.1 c-0.9,0.7-1.8,1.5-2.5,2.2c-0.5,0.5-0.9,0.9-1.3,1.4c-0.3-0.1-0.6-0.2-0.9-0.2c-1.2,0-2.2,0.7-2.7,1.7c-0.5,1-0.3,2.3,0.4,3.1 c-0.3,0.6-0.6,1.2-0.9,1.9c-0.3,0.6-0.5,1.3-0.7,1.9c-0.9-1.2-1.6-2.5-2.2-3.9c0.2-1,0.5-2,1-3C13.9,20.6,15.3,18.6,17,16.9L17,16.9 z M11.6,29.9c0.6,0.9,1.2,1.8,1.9,2.7c-0.3,1.5-0.5,3-0.5,4.5C12.1,34.9,11.6,32.5,11.6,29.9L11.6,29.9L11.6,29.9z M15.7,41.6 c-0.2-1.3-0.4-2.6-0.4-4c0-0.9,0.1-1.9,0.2-2.8c1.1,1,2.2,2,3.4,2.8c2.4,1.6,5,2.8,7.8,3.5c-2.8,1.4-5.9,2.3-9.1,2.6 c-0.2-0.2-0.5-0.5-0.7-0.7C16.5,42.6,16.1,42.1,15.7,41.6L15.7,41.6z M43.1,43.1c-1.7,1.7-3.7,3-5.8,3.9c-2.3,1-4.7,1.5-7.2,1.5 c-2.5,0-4.9-0.5-7.2-1.5c-0.9-0.4-1.7-0.8-2.5-1.3c2.7-0.5,5.3-1.4,7.8-2.6l0.5-0.2c0.5,0.3,1.1,0.5,1.6,0.5c1,0,2-0.5,2.5-1.5h0.3 c4.9,0,9.7-1.4,13.8-4.1C45.9,39.7,44.6,41.5,43.1,43.1L43.1,43.1z M43.1,43.1"></path>
</svg>