<svg xmlns="http://www.w3.org/2000/svg" viewBox="0 0 60 60" class="wzctk1th6__design-iconfont" width="128" height="128">
  <path d="M19.6 17A2.1 2.1 0 1 0 19.6 21.200000000000003A2.1 2.1 0 1 0 19.6 17Z"></path>
  <path d="M29.8,41.4l-17.1-6.3c-0.4-0.1-0.9-0.1-1.3,0.1c-0.4,0.2-0.7,0.5-0.8,0.9c-0.1,0.4-0.1,0.9,0.1,1.3 c0.2,0.4,0.5,0.7,0.9,0.8l6.6,2.4l-1.5,2.6H11v-2.3c0-0.9-0.7-1.6-1.6-1.6c-0.9,0-1.6,0.7-1.6,1.6v7.4c0,0.9,0.7,1.6,1.6,1.6 c0.9,0,1.6-0.7,1.6-1.6v-1.7h6.6c0.6,0,1.1-0.3,1.4-0.8l2.2-3.9l7.4,2.7c0.8,0.3,1.8-0.1,2.1-1c0.1-0.4,0.1-0.9-0.1-1.3 C30.5,41.9,30.2,41.6,29.8,41.4z"></path>
  <path d="M51.6,29c-0.7-0.6-1.7-0.4-2.3,0.3L43,37.6c-0.6,0.7-0.4,1.7,0.3,2.3c0.3,0.2,0.6,0.3,1,0.3c0.5,0,1-0.2,1.3-0.6l6.3-8.3 C52.5,30.6,52.3,29.5,51.6,29z"></path>
  <path d="M48.5,23.4c-0.4-1.4-1.5-2.5-2.9-3L18,10.4c-1.2-0.4-2.4-0.3-3.6,0.2c-1.1,0.6-2,1.5-2.3,2.7L8.2,25.3 C7.5,27.7,8.7,30.2,11,31l23.3,8.4c1.9,0.7,3.9,0.1,5.1-1.5l8.2-10.5C48.6,26.3,48.9,24.8,48.5,23.4z M45.1,25.4l-8.2,10.5 c-0.3,0.4-0.9,0.6-1.4,0.4L12.2,28c-0.6-0.2-1-0.9-0.8-1.6l3.9-12.1c0.1-0.3,0.3-0.6,0.6-0.8c0.3-0.1,0.7-0.2,1-0.1l27.7,10 c0.4,0.1,0.7,0.5,0.8,0.8C45.5,24.7,45.4,25.1,45.1,25.4z"></path>
</svg>