<svg version="1.1" id="图层_1" xmlns="http://www.w3.org/2000/svg" xmlns:xlink="http://www.w3.org/1999/xlink" x="0px" y="0px" viewBox="0 0 60 60" style="enable-background:new 0 0 60 60;" xml:space="preserve">
<style type="text/css">
	.st0{clip-path:url(#SVGID_2_);}
	.st1{clip-path:url(#SVGID_4_);}
</style>
<g>
	<path d="M43.6,32.5l0.2,1.8c0,0.3,0.3,0.6,0.6,0.6c0,0,0,0,0.1,0c0.3,0,0.6-0.3,0.6-0.7l-0.2-1.8c0-0.3-0.3-0.6-0.7-0.6
		C43.9,31.8,43.6,32.1,43.6,32.5z"></path>
	<path d="M45.9,44.7C45.9,44.7,45.9,44.7,45.9,44.7c0-0.4-0.3-0.6-0.7-0.6c-0.3,0-0.6,0.3-0.6,0.7l0.5,5.7h-3.4l-2.6-29.8l3.7,3.1
		l0.4,4.2c0,0.3,0.3,0.6,0.6,0.6l0.1,0c0,0,0,0,0,0c0.3,0,0.6-0.3,0.6-0.7l-0.4-4.5c0-0.2-0.1-0.3-0.2-0.4l-4.8-4l-0.3-4
		c0-0.2-0.1-0.3-0.2-0.4L31,8.4c0,0,0,0-0.1,0c0,0-0.1,0-0.1-0.1c0,0-0.1,0-0.1,0c0,0-0.1,0-0.1,0c0,0,0,0,0,0c0,0,0,0-0.1,0
		c-0.1,0-0.1,0-0.2,0c0,0-0.1,0-0.1,0.1c0,0-0.1,0-0.1,0.1l-7.5,6.2c-0.1,0.1-0.2,0.3-0.2,0.4l-1.1,12.3l-4.6,3.5
		c-0.1,0.1-0.2,0.2-0.2,0.4l-3.1,19.9c0,0,0,0.1,0,0.1c0,0.3,0.3,0.6,0.6,0.6H20h10.6h10.6h4.7c0,0,0,0,0.1,0c0.3,0,0.6-0.3,0.6-0.7
		L45.9,44.7z M23.3,20.5l6.7-4.3v5.2L22.8,26L23.3,20.5z M22.7,27.5l7.3-4.7v5.2l-7.8,5L22.7,27.5z M22.1,34.6l7.9-5v5.2l-8.4,5.3
		L22.1,34.6z M21.5,41.7l8.5-5.4v5.2l-9,5.7L21.5,41.7z M30,10.2v4.6l-6.6,4.2l0.3-3.5L30,10.2z M17.8,31.6l3.5-2.6l-1.9,21.6h-4.6
		L17.8,31.6z M20.9,48.7l9.1-5.8v7.6h-9.3L20.9,48.7z M31.2,50.5V10.2l6.3,5.2l3,35.2H31.2z"></path>
	<path d="M44.2,38.6l0.2,1.8c0,0.3,0.3,0.6,0.6,0.6c0,0,0,0,0.1,0c0,0,0,0,0,0c0.3,0,0.6-0.3,0.6-0.7l-0.2-1.8c0,0,0,0,0,0
		c0-0.3-0.3-0.6-0.7-0.6C44.4,38,44.1,38.3,44.2,38.6z"></path>
</g>
</svg>