<svg version="1.1" id="图层_1" xmlns="http://www.w3.org/2000/svg" xmlns:xlink="http://www.w3.org/1999/xlink" x="0px" y="0px" viewBox="0 0 60 60" style="enable-background:new 0 0 60 60;" xml:space="preserve">
<style type="text/css">
	.st0{clip-path:url(#SVGID_2_);}
	.st1{clip-path:url(#SVGID_4_);}
</style>
<g>
	<path d="M48.1,49.2h-1.2V12.8c0-0.4-0.3-0.7-0.7-0.7h-13c-0.4,0-0.7,0.3-0.7,0.7v3h-1.4v-3c0-0.4-0.3-0.7-0.7-0.7h-3v-2.1
		c0-0.4-0.3-0.7-0.7-0.7s-0.7,0.3-0.7,0.7v2.1h-3c-0.4,0-0.7,0.3-0.7,0.7v3h-2.1c-0.4,0-0.7,0.3-0.7,0.7v5.8h-5.8
		c-0.4,0-0.7,0.3-0.7,0.7v26.2h-1.2c-0.4,0-0.7,0.3-0.7,0.7s0.3,0.7,0.7,0.7h36.2c0.4,0,0.7-0.3,0.7-0.7
		C48.8,49.6,48.5,49.2,48.1,49.2z M23.7,13.5h6v2.3h-6V13.5z M21.4,49.2H21v-1.2c0-0.4-0.3-0.7-0.7-0.7c-0.4,0-0.7,0.3-0.7,0.7v1.2
		h-0.5v-2.3h2.3V49.2z M26.1,31.4v1.2v16.7h-3.2v-3c0-0.4-0.3-0.7-0.7-0.7h-3.7c-0.4,0-0.7,0.3-0.7,0.7v3h-3.2V23.7h11.6V31.4z
		 M26.8,22.3H21v-5.1h11.6v13.5h-5.1v-2.3h2.1c0.4,0,0.7-0.3,0.7-0.7c0-0.4-0.3-0.7-0.7-0.7h-2.1v-2.3h2.1c0.4,0,0.7-0.3,0.7-0.7
		c0-0.4-0.3-0.7-0.7-0.7h-2.1V23C27.4,22.7,27.1,22.3,26.8,22.3z M39,49.2H27.4V32.6v-0.5H39V49.2z M45.5,49.2L45.5,49.2h-5.1V31.4
		v-0.9c0-0.4-0.3-0.7-0.7-0.7S39,30.1,39,30.5v0.2h-1.4v-0.2c0-0.4-0.3-0.7-0.7-0.7s-0.7,0.3-0.7,0.7v0.2h-2.3V16.5v-3h11.6V49.2z"></path>
	<path d="M30.5,47.9c0.4,0,0.7-0.3,0.7-0.7v-13c0-0.4-0.3-0.7-0.7-0.7s-0.7,0.3-0.7,0.7v13C29.8,47.5,30.1,47.9,30.5,47.9z"></path>
	<path d="M33.2,47.9c0.4,0,0.7-0.3,0.7-0.7v-13c0-0.4-0.3-0.7-0.7-0.7s-0.7,0.3-0.7,0.7v13C32.6,47.5,32.9,47.9,33.2,47.9z"></path>
	<path d="M36,47.9c0.4,0,0.7-0.3,0.7-0.7v-13c0-0.4-0.3-0.7-0.7-0.7s-0.7,0.3-0.7,0.7v13C35.3,47.5,35.6,47.9,36,47.9z"></path>
	<path d="M37,18.2c0.4,0,0.7-0.3,0.7-0.7v-0.9c0-0.4-0.3-0.7-0.7-0.7s-0.7,0.3-0.7,0.7v0.9C36.3,17.9,36.6,18.2,37,18.2z"></path>
	<path d="M39.7,18.2c0.4,0,0.7-0.3,0.7-0.7v-0.9c0-0.4-0.3-0.7-0.7-0.7S39,16.2,39,16.5v0.9C39,17.9,39.4,18.2,39.7,18.2z"></path>
	<path d="M42.5,18.2c0.4,0,0.7-0.3,0.7-0.7v-0.9c0-0.4-0.3-0.7-0.7-0.7s-0.7,0.3-0.7,0.7v0.9C41.8,17.9,42.1,18.2,42.5,18.2z"></path>
	<path d="M37,22.8c0.4,0,0.7-0.3,0.7-0.7v-0.9c0-0.4-0.3-0.7-0.7-0.7s-0.7,0.3-0.7,0.7v0.9C36.3,22.5,36.6,22.8,37,22.8z"></path>
	<path d="M39.7,22.8c0.4,0,0.7-0.3,0.7-0.7v-0.9c0-0.4-0.3-0.7-0.7-0.7S39,20.8,39,21.2v0.9C39,22.5,39.4,22.8,39.7,22.8z"></path>
	<path d="M42.5,22.8c0.4,0,0.7-0.3,0.7-0.7v-0.9c0-0.4-0.3-0.7-0.7-0.7s-0.7,0.3-0.7,0.7v0.9C41.8,22.5,42.1,22.8,42.5,22.8z"></path>
	<path d="M37,27.4c0.4,0,0.7-0.3,0.7-0.7v-0.9c0-0.4-0.3-0.7-0.7-0.7s-0.7,0.3-0.7,0.7v0.9C36.3,27.1,36.6,27.4,37,27.4z"></path>
	<path d="M39.7,27.4c0.4,0,0.7-0.3,0.7-0.7v-0.9c0-0.4-0.3-0.7-0.7-0.7S39,25.4,39,25.8v0.9C39,27.1,39.4,27.4,39.7,27.4z"></path>
	<path d="M42.5,27.4c0.4,0,0.7-0.3,0.7-0.7v-0.9c0-0.4-0.3-0.7-0.7-0.7s-0.7,0.3-0.7,0.7v0.9C41.8,27.1,42.1,27.4,42.5,27.4z"></path>
	<path d="M17.5,29.3c0.4,0,0.7-0.3,0.7-0.7v-0.9c0-0.4-0.3-0.7-0.7-0.7c-0.4,0-0.7,0.3-0.7,0.7v0.9C16.8,29,17.1,29.3,17.5,29.3z"></path>
	<path d="M20.3,29.3c0.4,0,0.7-0.3,0.7-0.7v-0.9c0-0.4-0.3-0.7-0.7-0.7c-0.4,0-0.7,0.3-0.7,0.7v0.9C19.6,29,19.9,29.3,20.3,29.3z"></path>
	<path d="M23,29.3c0.4,0,0.7-0.3,0.7-0.7v-0.9c0-0.4-0.3-0.7-0.7-0.7c-0.4,0-0.7,0.3-0.7,0.7v0.9C22.3,29,22.7,29.3,23,29.3z"></path>
	<path d="M17.5,33.9c0.4,0,0.7-0.3,0.7-0.7v-0.9c0-0.4-0.3-0.7-0.7-0.7c-0.4,0-0.7,0.3-0.7,0.7v0.9C16.8,33.6,17.1,33.9,17.5,33.9z"></path>
	<path d="M20.3,33.9c0.4,0,0.7-0.3,0.7-0.7v-0.9c0-0.4-0.3-0.7-0.7-0.7c-0.4,0-0.7,0.3-0.7,0.7v0.9C19.6,33.6,19.9,33.9,20.3,33.9z"></path>
	<path d="M23,33.9c0.4,0,0.7-0.3,0.7-0.7v-0.9c0-0.4-0.3-0.7-0.7-0.7c-0.4,0-0.7,0.3-0.7,0.7v0.9C22.3,33.6,22.7,33.9,23,33.9z"></path>
	<path d="M17.5,38.6c0.4,0,0.7-0.3,0.7-0.7V37c0-0.4-0.3-0.7-0.7-0.7c-0.4,0-0.7,0.3-0.7,0.7v0.9C16.8,38.3,17.1,38.6,17.5,38.6z"></path>
	<path d="M20.3,38.6c0.4,0,0.7-0.3,0.7-0.7V37c0-0.4-0.3-0.7-0.7-0.7c-0.4,0-0.7,0.3-0.7,0.7v0.9C19.6,38.3,19.9,38.6,20.3,38.6z"></path>
	<path d="M23,38.6c0.4,0,0.7-0.3,0.7-0.7V37c0-0.4-0.3-0.7-0.7-0.7c-0.4,0-0.7,0.3-0.7,0.7v0.9C22.3,38.3,22.7,38.6,23,38.6z"></path>
	<path d="M17.5,43.2c0.4,0,0.7-0.3,0.7-0.7v-0.9c0-0.4-0.3-0.7-0.7-0.7c-0.4,0-0.7,0.3-0.7,0.7v0.9C16.8,42.9,17.1,43.2,17.5,43.2z"></path>
	<path d="M20.3,43.2c0.4,0,0.7-0.3,0.7-0.7v-0.9c0-0.4-0.3-0.7-0.7-0.7c-0.4,0-0.7,0.3-0.7,0.7v0.9C19.6,42.9,19.9,43.2,20.3,43.2z"></path>
	<path d="M23,43.2c0.4,0,0.7-0.3,0.7-0.7v-0.9c0-0.4-0.3-0.7-0.7-0.7c-0.4,0-0.7,0.3-0.7,0.7v0.9C22.3,42.9,22.7,43.2,23,43.2z"></path>
	<path d="M42.5,32.1c0.4,0,0.7-0.3,0.7-0.7v-0.9c0-0.4-0.3-0.7-0.7-0.7s-0.7,0.3-0.7,0.7v0.9C41.8,31.8,42.1,32.1,42.5,32.1z"></path>
	<path d="M42.5,36.7c0.4,0,0.7-0.3,0.7-0.7v-0.9c0-0.4-0.3-0.7-0.7-0.7s-0.7,0.3-0.7,0.7V36C41.8,36.4,42.1,36.7,42.5,36.7z"></path>
	<path d="M42.5,41.4c0.4,0,0.7-0.3,0.7-0.7v-0.9c0-0.4-0.3-0.7-0.7-0.7s-0.7,0.3-0.7,0.7v0.9C41.8,41.1,42.1,41.4,42.5,41.4z"></path>
	<path d="M42.5,46c0.4,0,0.7-0.3,0.7-0.7v-0.9c0-0.4-0.3-0.7-0.7-0.7s-0.7,0.3-0.7,0.7v0.9C41.8,45.7,42.1,46,42.5,46z"></path>
	<path d="M30.2,20.3c0-0.4-0.3-0.7-0.7-0.7H24c-0.4,0-0.7,0.3-0.7,0.7c0,0.4,0.3,0.7,0.7,0.7h5.6C29.9,21,30.2,20.6,30.2,20.3z"></path>
</g>
</svg>