<?xml version="1.0" encoding="utf-8"?>
<!-- Generator: Adobe Illustrator 25.2.1, SVG Export Plug-In . SVG Version: 6.00 Build 0)  -->
<svg version="1.1" id="图层_1" xmlns="http://www.w3.org/2000/svg" xmlns:xlink="http://www.w3.org/1999/xlink" x="0px" y="0px"
	 viewBox="0 0 200 200" style="enable-background:new 0 0 200 200;" xml:space="preserve">
<g>
	<g>
		<path d="M56.5,94.2c-0.7,0-1.3,0-1.9,0.1c-12.5,1.2-22.6,11.5-23.5,24c-0.5,7.2,2,14.1,6.9,19.5c4.9,5.2,11.8,8.2,19,8.2h85.5
			c14.6,0,26.6-11.9,26.7-26.5c0-12.7-9-23.7-21.5-26.1l-0.7-0.1l-0.1-0.8c-0.3-3.8-1.2-7.1-2.8-9.8c-3.2-5.7-8.2-9.9-14.2-12
			l-1.8,5.5c4.5,1.7,8.3,5,10.8,9.3c1.4,2.4,2.1,5.7,2.2,10.3v2.8l2.7,0.1c10.9,0.6,19.4,9.7,19.4,20.7c0,11.5-9.3,20.8-20.8,20.8
			h-24.1l2.4-1.8c1.7-1.2,3.2-2.6,4.6-4c7.5-7.7,11.4-17.7,11.1-28.3c-0.2-10.4-4.5-20.1-12.1-27.3c-7.7-7.3-17.6-11.1-27.9-10.8
			c-16,0.4-30.3,10.8-35.8,25.8l-0.3,0.7l-0.8-0.1C58.5,94.3,57.4,94.2,56.5,94.2z M91.7,140.2H57c-5.6,0-10.8-2.3-14.7-6.4
			c-3.9-4.1-5.8-9.5-5.4-15.2c0.6-9.8,8.5-17.8,18.2-18.6c0.6-0.1,1.2-0.1,1.8-0.1c0.8,0,1.7,0,2.9,0.4c2.8,0.3,5.6-1.5,6.5-4.1
			C70.9,83.1,83.2,74.1,97,73.8c8.8-0.3,17.2,2.9,23.7,9.2c6.4,6.1,10.1,14.4,10.3,23.2c0.2,9-3.2,17.5-9.5,24
			c-5.7,5.8-13.3,9.3-21.3,9.9l-7.5,0L91.7,140.2z"/>
	</g>
	<g>
		<path d="M155.7,87h5.7c-0.4-15.1-7.7-23.2-13.8-27.4c-5.3-3.6-10.6-4.9-12.7-5.3l-0.7,5.7C138.6,60.9,155,65.6,155.7,87z"/>
	</g>
</g>
</svg>
